<?xml version="1.0" standalone="yes"?>
<svg xmlns="http://www.w3.org/2000/svg" width="1536" height="2048">
<path style="fill:#0b0b0b; stroke:none;" d="M0 0L0 2048L1536 2048L1536 0L0 0z"/>
<path style="fill:#578535; stroke:none;" d="M142 509.424C85.6435 516.827 35.5968 550.142 18.7207 607C12.3472 628.473 13 650.863 13 673L13 757L13 1047L13 1323C13 1370.33 6.26914 1422.74 32.0617 1465C52.847 1499.05 86.7366 1523.18 126 1530.54C147.249 1534.52 169.48 1533 191 1533L294 1533L424 1533C457.074 1533 490.271 1534.05 523 1528.56C590.468 1517.25 650.661 1485.34 699 1437C710.589 1425.41 721.332 1413.06 731.232 1400C733.799 1396.61 740.218 1390.56 739.883 1386C739.606 1382.21 734.751 1378.68 732.424 1376C725.412 1367.92 718.095 1360.13 711.131 1352C689.025 1326.18 668.864 1297.24 653.258 1267C603.44 1170.48 585.805 1062.47 600.282 955C610.196 881.406 637.148 810.519 678.745 749C693.214 727.603 709.29 706.792 727.036 688C731.524 683.246 746.421 671.696 746.172 665C745.796 654.885 729.411 639.679 723.424 632C697.758 599.073 664.203 570.849 628 550.15C532.676 495.648 419.521 509 314 509L201 509C181.732 509 161.102 506.915 142 509.424z"/>
<path style="fill:#4f6d37; stroke:none;" d="M483.667 509.333L484.333 509.667L483.667 509.333z"/>
<path style="fill:#3b8136; stroke:none;" d="M498 510L499 511L498 510z"/>
<path style="fill:#4f6d37; stroke:none;" d="M508 511L509 512L508 511z"/>
<path style="fill:#3b8136; stroke:none;" d="M516 512L517 513L516 512M528 514L529 515L528 514z"/>
<path style="fill:#4f6d37; stroke:none;" d="M106 516L107 517L106 516M543 517L544 518L543 517M98 519L99 520L98 519M96 520L97 521L96 520M555 520L556 521L555 520z"/>
<path style="fill:#01ff01; stroke:none;" d="M559 521L560 522L559 521z"/>
<path style="fill:#4f6d37; stroke:none;" d="M572 525L573 526L572 525M84 526L85 527L84 526M82 527L83 528L82 527M583 529L584 530L583 529M77 530L78 531L77 530z"/>
<path style="fill:#3b8136; stroke:none;" d="M74 532L75 533L74 532z"/>
<path style="fill:#4f6d37; stroke:none;" d="M591 532L592 533L591 532M70 535L71 536L70 535M66 538L67 539L66 538z"/>
<path style="fill:#01ff01; stroke:none;" d="M607 539L608 540L607 539z"/>
<path style="fill:#4f6d37; stroke:none;" d="M611 541L612 542L611 541z"/>
<path style="fill:#3b8136; stroke:none;" d="M613 542L614 543L613 542M60 543L61 544L60 543z"/>
<path style="fill:#4f6d37; stroke:none;" d="M615 543L616 544L615 543z"/>
<path style="fill:#3b8136; stroke:none;" d="M59 544L60 545L59 544z"/>
<path style="fill:#4f6d37; stroke:none;" d="M626 549L627 550L626 549M633 553L634 554L633 553M48 555L49 556L48 555M636 555L637 556L636 555z"/>
<path style="fill:#3b8136; stroke:none;" d="M47 556L48 557L47 556M641 558L642 559L641 558z"/>
<path style="fill:#4f6d37; stroke:none;" d="M644 560L645 561L644 560M42 562L43 563L42 562z"/>
<path style="fill:#3b8136; stroke:none;" d="M650 564L651 565L650 564z"/>
<path style="fill:#01ff01; stroke:none;" d="M653 566L654 567L653 566z"/>
<path style="fill:#3b8136; stroke:none;" d="M657 569L658 570L657 569z"/>
<path style="fill:#4f6d37; stroke:none;" d="M661 572L662 573L661 572M34 573L35 574L34 573z"/>
<path style="fill:#3b8136; stroke:none;" d="M665 575L666 576L665 575M32 576L33 577L32 576M670 579L671 580L670 579z"/>
<path style="fill:#4f6d37; stroke:none;" d="M28 583L29 584L28 583z"/>
<path style="fill:#01ff01; stroke:none;" d="M675 583L676 584L675 583z"/>
<path style="fill:#4f6d37; stroke:none;" d="M676 584L677 585L676 584M27 585L28 586L27 585M25 589L26 590L25 589M683 590L684 591L683 590M684 591L685 592L684 591M22 596L23 597L22 596z"/>
<path style="fill:#3b8136; stroke:none;" d="M16 616L17 617L16 616z"/>
<path style="fill:#4f6d37; stroke:none;" d="M712 619L713 620L712 619z"/>
<path style="fill:#3b8136; stroke:none;" d="M15 621L16 622L15 621z"/>
<path style="fill:#4f6d37; stroke:none;" d="M14 627L15 628L14 627M723 632L724 633L723 632M727 637L728 638L727 637M13 638L14 639L13 638M730 641L731 642L730 641z"/>
<path style="fill:#3b8136; stroke:none;" d="M736 649L737 650L736 649z"/>
<path style="fill:#4f6d37; stroke:none;" d="M747 666C702.868 710.133 665.408 761.152 639.309 818C580.042 947.092 580.666 1104.1 636.719 1234C654.487 1275.17 678.952 1313.13 707.001 1348C716.227 1359.47 728.55 1378.73 742 1385C794.495 1307.12 807.908 1202.74 781.279 1113C774.65 1090.66 765.776 1069.14 753.988 1049C749.994 1042.18 736.708 1028.66 736.708 1021C736.708 1014.28 747.97 1002.82 751.576 997C762.392 979.534 771.148 960.493 777.645 941C799.999 873.936 800.001 797.003 777.667 730C770.775 709.326 762.178 682.158 747 666z"/>
<path style="fill:#0b0b0b; stroke:none;" d="M295 784L295 883L432 883C451.556 883 475.465 887.211 492 874.471C522.248 851.164 517.662 800.197 480 786.866C461.422 780.289 437.441 784 418 784L295 784z"/>
<path style="fill:#3b8136; stroke:none;" d="M493 794L494 795L493 794z"/>
<path style="fill:#4f6d37; stroke:none;" d="M494 795L495 796L494 795M504 806L505 807L504 806M511 824L512 825L511 824z"/>
<path style="fill:#3b8136; stroke:none;" d="M508 853L509 854L508 853M505 859L506 860L505 859M503 862L504 863L503 862M500 866L501 867L500 866M498 868L499 869L498 868M497 869L498 870L497 869M490 875L491 876L490 875z"/>
<path style="fill:#4f6d37; stroke:none;" d="M474 882L475 883L474 882z"/>
<path style="fill:#0b0b0b; stroke:none;" d="M295 1159L295 1258L418 1258C437.41 1258 461.45 1261.7 480 1255.13C517.662 1241.8 522.247 1190.84 492 1167.53C475.465 1154.79 451.556 1159 432 1159L295 1159z"/>
<path style="fill:#3b8136; stroke:none;" d="M474 1159L475 1160L474 1159z"/>
<path style="fill:#4f6d37; stroke:none;" d="M478 1160L479 1161L478 1160M490 1166L491 1167L490 1166z"/>
<path style="fill:#3b8136; stroke:none;" d="M496 1171L497 1172L496 1171M497 1172L498 1173L497 1172M498 1173L499 1174L498 1173z"/>
<path style="fill:#4f6d37; stroke:none;" d="M500 1175L501 1176L500 1175z"/>
<path style="fill:#3b8136; stroke:none;" d="M503 1179L504 1180L503 1179z"/>
<path style="fill:#4f6d37; stroke:none;" d="M505 1182L506 1183L505 1182z"/>
<path style="fill:#3b8136; stroke:none;" d="M508 1188L509 1189L508 1188z"/>
<path style="fill:#4f6d37; stroke:none;" d="M504 1235L505 1236L504 1235M494 1246L495 1247L494 1246M493 1247L494 1248L493 1247M481 1254L482 1255L481 1254z"/>
<path style="fill:#3b8136; stroke:none;" d="M736 1392L737 1393L736 1392z"/>
<path style="fill:#4f6d37; stroke:none;" d="M730 1400L731 1401L730 1400M13 1403L14 1404L13 1403M723 1409L724 1410L723 1409M14 1414L15 1415L14 1414z"/>
<path style="fill:#01ff01; stroke:none;" d="M719 1414L720 1415L719 1414z"/>
<path style="fill:#4f6d37; stroke:none;" d="M717 1416L718 1417L717 1416z"/>
<path style="fill:#3b8136; stroke:none;" d="M15 1420L16 1421L15 1420z"/>
<path style="fill:#4f6d37; stroke:none;" d="M712 1422L713 1423L712 1422M711 1423L712 1424L711 1423z"/>
<path style="fill:#3b8136; stroke:none;" d="M16 1425L17 1426L16 1425z"/>
<path style="fill:#4f6d37; stroke:none;" d="M22 1445L23 1446L22 1445M685 1449L686 1450L685 1449M684 1450L685 1451L684 1450M683 1451L684 1452L683 1451M25 1452L26 1453L25 1452z"/>
<path style="fill:#3b8136; stroke:none;" d="M27 1456L28 1457L27 1456z"/>
<path style="fill:#4f6d37; stroke:none;" d="M676 1457L677 1458L676 1457M28 1458L29 1459L28 1458M671 1461L672 1462L671 1461M670 1462L671 1463L670 1462M32 1465L33 1466L32 1465z"/>
<path style="fill:#3b8136; stroke:none;" d="M665 1466L666 1467L665 1466z"/>
<path style="fill:#4f6d37; stroke:none;" d="M34 1468L35 1469L34 1468z"/>
<path style="fill:#3b8136; stroke:none;" d="M657 1472L658 1473L657 1472M650 1477L651 1478L650 1477z"/>
<path style="fill:#4f6d37; stroke:none;" d="M647 1479L648 1480L647 1479M641 1483L642 1484L641 1483z"/>
<path style="fill:#3b8136; stroke:none;" d="M47 1485L48 1486L47 1485z"/>
<path style="fill:#4f6d37; stroke:none;" d="M48 1486L49 1487L48 1486z"/>
<path style="fill:#3b8136; stroke:none;" d="M636 1486L637 1487L636 1486z"/>
<path style="fill:#4f6d37; stroke:none;" d="M633 1488L634 1489L633 1488M631 1489L632 1490L631 1489M626 1492L627 1493L626 1492z"/>
<path style="fill:#3b8136; stroke:none;" d="M59 1497L60 1498L59 1497M60 1498L61 1499L60 1498z"/>
<path style="fill:#4f6d37; stroke:none;" d="M613 1499L614 1500L613 1499M611 1500L612 1501L611 1500z"/>
<path style="fill:#01ff01; stroke:none;" d="M609 1501L610 1502L609 1501z"/>
<path style="fill:#4f6d37; stroke:none;" d="M66 1503L67 1504L66 1503M70 1506L71 1507L70 1506z"/>
<path style="fill:#3b8136; stroke:none;" d="M598 1506L599 1507L598 1506z"/>
<path style="fill:#4f6d37; stroke:none;" d="M74 1509L75 1510L74 1509M591 1509L592 1510L591 1509z"/>
<path style="fill:#01ff01; stroke:none;" d="M586 1511L587 1512L586 1511z"/>
<path style="fill:#3b8136; stroke:none;" d="M583 1512L584 1513L583 1512z"/>
<path style="fill:#4f6d37; stroke:none;" d="M82 1514L83 1515L82 1514z"/>
<path style="fill:#01ff01; stroke:none;" d="M575 1515L576 1516L575 1515M569 1517L570 1518L569 1517M559 1520L560 1521L559 1520z"/>
<path style="fill:#3b8136; stroke:none;" d="M96 1521L97 1522L96 1521M555 1521L556 1522L555 1521z"/>
<path style="fill:#4f6d37; stroke:none;" d="M98 1522L99 1523L98 1522M547 1523L548 1524L547 1523M543 1524L544 1525L543 1524M106 1525L107 1526L106 1525M528 1527L529 1528L528 1527M121 1529L122 1530L121 1529M516 1529L517 1530L516 1529M508 1530L509 1531L508 1530M132 1531L133 1532L132 1531M142.667 1532.33L143.333 1532.67L142.667 1532.33z"/>
<path style="fill:#3b8136; stroke:none;" d="M483 1532L484 1533L483 1532z"/>
<path style="fill:#4f6d37; stroke:none;" d="M484 1532L485 1533L484 1532z"/>
</svg>
