<svg width="683" height="399" viewBox="0 0 683 399" fill="none" xmlns="http://www.w3.org/2000/svg">
<path id="bear 1 (Traced)" fill-rule="evenodd" clip-rule="evenodd" d="M286.749 4.47738C293.41 6.83526 307.036 12.7378 317.027 17.5948C333.559 25.6324 337.644 26.3231 362.445 25.2901C426.669 22.612 458.803 24.1285 484.068 31.0263C516.638 39.9178 533.273 47.5471 546.641 59.7164C575.185 85.7034 610.98 159.696 646.908 266.971C655.716 293.278 660.479 302.619 670.474 313.206L683 326.474L669.45 361.87L655.898 397.267L632.268 398.19C602.102 399.367 592.507 392.984 606.187 380.84C609.517 377.883 612.242 372.407 612.242 368.668C612.242 363.045 609.944 361.516 598.926 359.805C576.299 356.285 539.565 335.896 504.439 307.353C502.253 305.576 496.872 310.882 488.885 322.697C476.843 340.508 470.718 356.866 469.198 375.289C468.565 382.96 465.913 386.021 454.909 391.772C443.174 397.911 436.703 398.837 405.613 398.837C375.274 398.837 369.536 398.055 367.922 393.7C364.68 384.931 371.332 378.492 384.706 377.465C392.006 376.903 397.202 374.931 397.111 372.756C397.026 370.696 390.422 355.695 382.435 339.422L367.913 309.837L359.881 328.028C354.315 340.634 351.848 351.481 351.848 363.352C351.848 378.099 350.615 381.757 342.997 389.659L334.147 398.837H292.944C257.588 398.837 251.469 398.108 249.837 393.7C247.075 386.237 252.837 378.58 262.075 377.437C266.487 376.891 270.084 375.478 270.069 374.297C270.056 373.117 268.022 354.489 265.554 332.904C263.086 311.319 261.052 292.22 261.04 290.462C261.024 288.704 257.385 284.98 252.952 282.192L244.892 277.122L235.188 297.947C222.425 325.344 204.062 346.31 183.86 356.561C174.852 361.129 157.581 372.548 145.482 381.936L123.485 399L81.013 398.133C41.7842 397.333 38.4567 396.802 37.4181 391.195C36.0132 383.613 44.5547 376.859 55.5428 376.859C66.0403 376.859 72.7016 367.779 95.8343 321.915C105.417 302.92 117.208 281.803 122.034 274.987C129.416 264.569 130.824 259.568 130.866 243.59C130.897 233.138 132.941 214.696 135.408 202.608C137.879 190.524 139.898 180.279 139.898 179.846C139.898 179.416 127.802 179.061 113.017 179.061C94.1235 179.061 85.1309 177.799 82.7388 174.816C80.6466 172.201 69.2771 169.768 53.1508 168.48C17.1982 165.614 13.2044 163.064 5.95575 138.359L0 118.064L7.79968 111.671C12.0871 108.155 19.7203 101.992 24.7617 97.9763C30.5751 93.3421 33.924 87.8446 33.924 82.9373C33.924 63.3553 52.5543 40.778 82.7934 23.7109C91.0109 19.0736 101.027 11.865 105.054 7.68924C114.407 -2.00915 132.707 -2.6308 143.753 6.38C147.986 9.83362 153.07 12.6593 155.044 12.6593C157.021 12.6593 168.115 15.642 179.694 19.2903L200.749 25.9212L219.528 13.8995C234.991 3.99701 241.51 1.72704 256.471 1.03318C266.462 0.571647 280.088 2.12264 286.749 4.47738ZM236.508 29.9274C203.42 49.3901 205.603 49.1327 162.247 38.7404C157.293 37.5536 155.389 39.0355 153.887 45.2489C151.462 55.2613 140.825 61.9927 135.79 56.6992C133.885 54.6993 132.329 46.4451 132.329 38.3574C132.329 25.4722 131.481 23.5225 125.483 22.6403C119.96 21.8271 118.283 23.4817 116.793 31.2052C114.347 43.88 108.739 48.6083 101.142 44.3918C96.5156 41.8235 92.3977 43.0668 81.2613 50.3885C65.2228 60.9346 56.6418 73.735 53.9622 91.1098C52.5603 100.202 48.7392 106.234 38.4203 115.653C26.3392 126.682 25.0705 129.043 27.5715 135.866C29.9332 142.311 33.0762 143.922 46.5471 145.599C55.4247 146.707 66.7761 147.63 71.772 147.655C76.7679 147.683 84.7584 149.815 89.5273 152.393C100.655 158.411 150.457 159.002 154.102 153.159C155.45 151.002 158.595 140.757 161.093 130.396C164.669 115.558 166.977 111.361 171.957 110.623C182.833 109.009 185.849 116.447 182.043 135.492C180.184 144.776 176.057 157.08 172.866 162.829L167.067 173.287L182.013 179.833C194.076 185.117 198.024 188.857 202.466 199.205C209.584 215.785 246.291 253.791 264.906 263.85C273.142 268.299 279.973 274.39 280.733 277.96C282.119 284.481 291.291 367.666 291.291 373.719C291.291 375.945 297.967 376.828 310.215 376.225L329.139 375.289L330.707 354.882C331.722 341.701 335.216 328.238 340.572 316.873C359.953 275.737 357.355 236.19 332.908 200.254C328.551 193.852 332.745 184.405 340.66 182.788C347.627 181.362 363.36 205.469 369.418 226.853L374.556 244.984L399.388 244.991C446.928 244.997 482.012 258.607 521.407 292.33C548.049 315.134 584.58 334.333 612.242 340.069L631.923 344.147L632.838 360.505C633.404 370.621 635.142 376.859 637.392 376.859C639.393 376.859 644.822 366.727 649.451 354.342L657.872 331.824L647.492 320.59C640.662 313.196 635.363 302.92 631.99 290.519C625.144 265.339 589.979 173.538 576.701 146.192C560.899 113.637 543.574 86.4066 531.911 75.7883C510.61 56.3947 446.026 41.5598 401.813 45.9051C350.597 50.9348 334.967 49.4843 306.43 37.0356C292.275 30.863 278.65 25.0829 276.152 24.1913C265.045 20.2353 249.055 22.5461 236.508 29.9274ZM156.857 201.823C155.804 205.707 154.057 222.985 152.976 240.212C151.159 269.182 150.248 272.641 140.858 286.192C135.272 294.255 122.028 317.95 111.422 338.854L92.1434 376.859H103.891C113.511 376.859 120.084 373.443 140.144 358.021C153.621 347.66 166.368 339.183 168.472 339.183C170.574 339.183 178.016 334.885 185.007 329.636C198.751 319.312 212.527 299.062 220.463 277.511L225.45 263.967L208.14 244.579C198.621 233.917 188.598 220.335 185.867 214.401C183.051 208.275 176.95 201.808 171.758 199.44C159.289 193.758 159.031 193.802 156.857 201.823ZM377.618 274.035C378.693 277.922 389.344 302.603 401.286 328.882C420.901 372.04 423.753 376.674 430.75 376.762C442.471 376.909 447.452 370.781 451.449 351.302C453.838 339.645 459.675 326.772 468.529 313.627C475.926 302.644 481.993 292.629 482.012 291.366C482.069 287.442 458.573 276.434 440.382 271.863C430.823 269.461 412.35 267.376 399.333 267.232C376.176 266.978 375.704 267.125 377.618 274.035Z" fill="black"/>
</svg>
