<svg width="875" height="921" viewBox="0 0 875 921" fill="none" xmlns="http://www.w3.org/2000/svg">
<path id="Traced layer" fill-rule="evenodd" clip-rule="evenodd" d="M406.069 2.44C381.632 7.65 364.868 14.815 351 25.977C346.875 29.298 341.025 33.181 338 34.607C320.631 42.795 315.887 46.031 298.34 61.666C292.446 66.918 286.53 71.713 285.194 72.321C282.605 73.501 281.611 72.74 276.421 65.607L274.342 62.749L267.59 71.124C249.908 93.06 238.972 112.725 233.004 133.315C231.415 138.799 229.612 143.784 228.999 144.393C228.183 145.203 226.588 144.779 223.045 142.808C218.533 140.298 218.106 140.23 216.731 141.808C214.097 144.832 209.164 162.84 206.565 178.921C205.727 184.102 204.313 197.815 203.423 209.394C201.939 228.683 201.571 230.908 199.027 235.973C197.499 239.013 194.963 244.875 193.391 249C190.65 256.187 190.531 257.209 190.534 273.5C190.537 288.071 190.871 291.786 192.872 299.5C195.501 309.632 201.835 325.739 208.057 338.114L212.226 346.404L211.072 361.807L209.918 377.211L218.378 385.987C227.324 395.267 231 401.047 231 405.834C231 413.581 236.867 423.012 251.942 439.5C263.046 451.643 266.236 457.75 269.443 473C274.397 496.563 278.376 537.561 276.117 541.781C275.475 542.981 270.209 546.375 264.232 549.441C250.061 556.709 238.133 567.226 228.995 580.508C224.894 586.468 217.04 603.174 213.572 613.312C209.462 625.33 209.098 625.901 204.837 627.005C202.727 627.552 199.087 628.488 196.75 629.084C181.99 632.849 164.914 639.294 159.413 643.178C154.54 646.619 151.218 647.936 140.526 650.671L127.553 653.989L119.224 662.245C114.643 666.785 108.395 673.487 105.34 677.139C98.933 684.794 98.233 685.186 85.787 688.09C80.679 689.282 74.579 691.152 72.232 692.247C66.655 694.848 59.568 702.112 56.966 707.896C52.495 717.832 53.151 717.259 41.966 721.01C28.003 725.693 19.902 730.21 11.821 737.819C4.108 745.082 0 752.315 0 758.632C0 762.684 0.321 763.134 7.25 768.794C19.933 779.155 45.825 797.83 67.5 812.251C150.503 867.475 228.28 899.731 316.5 915.517C341.866 920.056 357.712 920.946 413.5 920.965C460.592 920.981 472.072 920.305 497.5 916.018C590.063 900.413 676.876 866.671 773.5 808.745C796.677 794.851 856.763 754.573 872.953 742.078C876.047 739.691 875.617 738.659 866.472 726.5C846.819 700.373 815.618 667.392 798.6 654.758C788.67 647.385 774.406 639 771.794 639C770.856 639 768.591 637.987 766.76 636.75C764.928 635.513 758.614 632.742 752.728 630.594L742.026 626.688L742.621 622.971C743.447 617.805 740.964 613.082 734.147 606.851C724.45 597.989 723.378 597.549 695.5 590.967C681.2 587.59 668.962 584.382 668.305 583.837C667.648 583.292 665.71 580.665 664 578C656.627 566.51 646.129 562.21 623.219 561.293C609.075 560.728 608.92 560.696 606.989 557.984C603.469 553.042 599.603 552 584.78 552C568.969 552 564.634 553.049 554 559.451C549.875 561.935 546.199 563.974 545.832 563.983C544.95 564.005 541.699 553.939 538.57 541.5L536.054 531.5L541.909 523C550.158 511.024 553.456 505.201 557.441 495.575C559.352 490.957 562.964 483.476 565.467 478.951C582.649 447.89 594.449 407.06 603.604 347C605.747 332.94 606.046 287.845 604.073 276.321L602.843 269.142L607.365 255.307C612.815 238.63 613.644 233.742 614.96 210.5C616.576 181.969 617.094 180.019 623.472 178.418C628.859 177.066 629.32 178.046 628.58 189.268C626.125 226.475 624.011 236.208 613.6 258.234C608.589 268.836 608.278 270 610.449 270C612.689 270 616.46 264.39 621.909 252.951C631.138 233.579 635.284 214.713 635.415 191.5C635.518 173.384 633.727 161.636 630.349 158.258C628.431 156.34 627.402 156.072 624.029 156.611C620.531 157.171 619.996 157.008 619.969 155.378C619.951 154.345 619.524 146.453 619.02 137.84C618.076 121.746 617.135 117.802 612.777 111.692L610.5 108.5L610 126.703C609.471 145.951 609.01 147.728 604.823 146.662C598.31 145.003 565.372 123.952 557.021 116.113C550.882 110.348 550.556 108.665 555.75 109.545C565.522 111.2 582.817 116.292 587.757 118.968L593.253 121.944L592.679 118.722C592.363 116.95 591.408 112.35 590.557 108.5C589.706 104.65 588.72 96.994 588.367 91.487C587.834 83.169 587.984 81.258 589.256 80.203C590.553 79.126 591.488 79.735 595.393 84.199L600 89.466V83.61C600 78.755 600.235 77.95 601.375 78.897C602.132 79.524 603.335 82.167 604.048 84.769C604.762 87.371 606.183 91.486 607.207 93.913C609.464 99.264 616.256 108.732 616.757 107.228C617.344 105.469 611.193 88.16 607.461 81.064C603.647 73.814 594.463 61.237 591.791 59.606C590.48 58.805 589.372 59.088 587.021 60.826L583.959 63.09L572.729 52.765C556.336 37.692 551.488 34.655 548.534 37.609C547.69 38.453 547 40.461 547 42.071C547 44.129 546.508 45 545.346 45C544.436 45 538.473 41.488 532.096 37.196C503.368 17.86 482.133 9.667 443.5 3.012C424.529 -0.255996 419.106 -0.338996 406.069 2.44ZM464.5 15.712C485.21 22.721 507 33.242 507 36.233C507 37.214 505.784 37.137 492.098 35.283L487.696 34.686L488.39 42.593C488.773 46.942 489.353 52.862 489.68 55.75L490.275 61L478.888 60.986C472.624 60.979 466.512 60.708 465.305 60.384L463.11 59.795L465.04 54.9C466.101 52.207 468.268 47.415 469.854 44.252C475.219 33.557 475.393 34 465.817 34.001C455.306 34.002 437.838 35.615 427.64 37.527C418.543 39.232 418 39.27 418 38.209C418 37.774 420.25 33.855 423 29.5C425.75 25.145 428 21.261 428 20.868C428 19.607 421.718 18.169 413.5 17.548C397.99 16.377 393 15.759 393 15.012C393 14.596 395.362 13.532 398.25 12.648C402.599 11.316 407.702 11.092 428 11.345L452.5 11.65L464.5 15.712ZM412.145 26.745C413.74 28.34 410.9 35.989 405.088 45.757C395.331 62.153 389.66 67.214 372.76 74.605C363.62 78.602 359.695 81.108 349.209 89.641C344.752 93.268 343.899 92.027 344.99 83.498C345.482 79.649 346.591 70.729 347.455 63.676C349.18 49.585 350.396 46.306 355.249 42.662C362.47 37.239 385.079 27.848 395.215 26.062C401.676 24.924 410.687 25.287 412.145 26.745ZM464.75 39.63C468.459 40.624 467.386 43.775 461.25 49.904C455.289 55.858 440.95 66.932 435.578 69.729C431.602 71.8 414.853 72.604 405.631 71.166C401.853 70.577 398.54 69.873 398.269 69.602C397.997 69.331 400.766 64.819 404.422 59.575C410.708 50.559 411.46 49.857 418.284 46.63C422.253 44.754 427.809 42.687 430.63 42.038C441.019 39.648 459.856 38.319 464.75 39.63ZM505.543 41.573C510.469 42.988 519.098 46.39 524.717 49.133C533.175 53.262 535.948 55.227 540.824 60.549C546.748 67.014 553.563 78.922 554.533 84.5C555.544 90.315 554.908 90.506 534.784 90.437L516.5 90.375L508.436 86.805C482.419 75.288 480.159 68.464 501.966 67.262C507.485 66.958 512 66.42 512 66.068C512 65.715 508.637 61.648 504.528 57.031C496.765 48.31 493.449 42.88 494.388 40.43C495.102 38.569 495.079 38.567 505.543 41.573ZM335.399 54.25C339.224 60.206 338.074 73.788 332.834 84.535C331.177 87.935 326.02 95.789 321.376 101.99C316.732 108.191 313.08 113.413 313.261 113.594C313.442 113.775 318.366 112.375 324.204 110.482C338.175 105.952 351.053 104.43 363.25 105.869C374.377 107.182 383.939 110.242 386.958 113.455L389.174 115.814L384.826 118.362C374.062 124.67 357.168 129.274 338.5 130.986C309.696 133.629 302.542 135.045 289.877 140.614C285.447 142.562 281.552 143.885 281.221 143.555C280.666 143 286.167 112.951 289.543 98.091C292.539 84.905 299.093 75.069 312.278 63.971C319.041 58.278 329.718 52 332.637 52C333.361 52 334.604 53.013 335.399 54.25ZM565.466 58.395C572.648 66.01 582.504 89.879 583.684 102.514L584.289 109H580.217C570.154 109 560.452 106.831 551.389 102.556C546.378 100.192 541.977 97.771 541.609 97.176C540.935 96.086 544.542 94.868 552.465 93.509C563.351 91.641 564.932 88.029 562.546 70.484C561.65 63.893 560.68 57.712 560.391 56.75C559.542 53.925 562.003 54.723 565.466 58.395ZM475.045 75.25C489.696 87.76 492.743 89.452 523.086 101.93C527.916 103.917 533.14 107.129 537.467 110.775C551.957 122.982 567.028 134.454 579.374 142.675C594.466 152.725 599.098 157.046 600.774 162.64C602.544 168.548 602.522 227.34 600.75 226.753C599.926 226.48 599.27 222.957 598.825 216.419C597.504 197.016 591.482 177.02 582.392 161.853C579.445 156.936 573.488 149.494 567.412 143.139L557.325 132.589L556.719 146.754C556.148 160.102 555.151 165 553.003 165C552.494 165 549.367 159.713 546.054 153.25C542.742 146.787 537.815 138.575 535.107 135C529.604 127.735 512.272 110.395 511.392 111.274C511.081 111.586 513.377 115.714 516.494 120.448C523.549 131.16 526.919 139.326 527.689 147.571C528.201 153.06 528.04 154.047 526.536 154.624C521.256 156.651 499.845 139.154 487.223 122.5C484.723 119.2 482.243 116.05 481.713 115.5C480.166 113.896 481.721 126.326 484.502 137.814C487.13 148.666 487.544 152.546 486.165 153.398C485.706 153.682 483.568 153.383 481.415 152.734C472.983 150.191 461.816 135.339 455.865 118.75C454.139 113.938 452.376 110 451.947 110C451.518 110 448.393 115.287 445.002 121.75C436.562 137.836 429 148.932 421.09 156.837C413.735 164.186 401.706 172.554 400.005 171.503C398.346 170.478 398.545 169.971 412.626 139.25C414.454 135.262 415.581 132 415.13 132C414.68 132 410.487 137.738 405.814 144.75C401.14 151.762 394.593 160.875 391.265 165C383.546 174.567 362.647 195 360.582 195C358.632 195 359.344 193.1 370.998 167.2C379.136 149.116 380.785 143.461 375.315 152.395C373.767 154.925 369.575 161.765 366 167.597C358.466 179.886 341.979 202.201 338.776 204.445C337.492 205.344 336.212 205.612 335.691 205.091C334.801 204.201 336.071 199.379 344.011 173.5C346.205 166.35 347.985 159.375 347.968 158C347.937 155.547 347.907 155.538 346.384 157.5C343.457 161.271 334.158 181.5 330.525 192C313.068 242.453 308.925 290.119 317.663 340C322.091 365.278 321.879 369.023 316.318 363.855C309.268 357.305 300.741 342.1 287.353 312.206C279.282 294.185 273.647 282.918 267.608 272.721C265.073 268.443 263 264.811 263 264.65C263 264.489 265.492 261.239 268.538 257.428C276.172 247.877 281.886 237.848 289.339 220.92C296.459 204.749 299.959 197.626 300.514 198.18C300.719 198.386 300.434 200.567 299.88 203.027C297.399 214.042 295.031 235.51 295.031 247C295.031 262.44 296.262 265.305 297.97 253.839C300.081 239.662 303.923 220.174 307.689 204.537L311.292 189.574L316.265 185.037C327.78 174.533 329.057 172.867 334.57 161.172C337.595 154.752 340.842 147.934 341.785 146.02C343.407 142.729 344.126 142.36 355 139.243C369.383 135.12 378.53 130.68 387.5 123.468C391.35 120.372 395.193 117.46 396.041 116.996C396.888 116.533 402.555 115.689 408.633 115.122C421.086 113.959 428.005 111.74 436.646 106.14C446.009 100.071 446.052 99.922 440.372 93.451C430.578 82.295 429.617 80.982 430.564 80.051C431.535 79.096 464.201 70.197 467.198 70.071C468.132 70.032 471.663 72.362 475.045 75.25ZM406.017 84.907C414.582 86.013 426.838 91.193 432.206 95.976L436.5 99.802L434.249 102.216C431.578 105.082 422.054 108.557 413 109.97C401.621 111.746 398.938 111.364 388.839 106.526C380.5 102.53 378.107 101.877 366.5 100.431C359.35 99.54 353.05 98.371 352.5 97.834C351.838 97.188 352.258 96.238 353.741 95.026C356.594 92.694 369.975 87.044 376.5 85.417C382.353 83.957 396.737 83.709 406.017 84.907ZM272.737 103.888C273.284 115.886 271.719 139.735 269.842 148C267.664 157.593 247.065 196 244.098 196C241.502 196 240.5 188.059 240.5 167.5C240.5 149.523 240.775 145.661 242.412 140.672C246.645 127.764 265.93 91.891 269.261 90.726C271.437 89.966 272.242 93.014 272.737 103.888ZM452.532 133.062C453.85 135.611 453.931 137.015 453.014 141.431C451.819 147.19 449.655 150.992 448.332 149.66C447.347 148.668 447.292 134.274 448.263 131.75C449.261 129.158 450.75 129.616 452.532 133.062ZM330.75 141.63C335.825 142.99 331.962 152.923 321.053 166.56C312.872 176.787 309.609 178.469 291.995 181.533C282.36 183.21 272.464 185.685 265.691 188.111C259.719 190.25 254.18 192 253.382 192C250.733 192 253.801 187.986 265.888 175.636C284.765 156.348 301.83 144.451 314 142.091C319.454 141.034 327.681 140.808 330.75 141.63ZM499 147.506C506.255 155.346 529.848 173 533.071 173C535.2 173 535.495 172.231 537.04 162.65C537.791 157.999 538.718 155.073 539.372 155.291C540.425 155.642 541.761 157.819 551.012 174.273C554.68 180.796 555.6 181.829 556.732 180.697C558.568 178.86 562.777 166.163 563.596 159.987C563.963 157.22 564.618 154.736 565.051 154.468C567.273 153.095 582.362 178.992 584.883 188.503C586.872 196.009 587.966 220.452 589.012 280.761L590.057 341.023L586.462 362.261C575.183 428.878 568.801 447.504 541.149 494.5C527.675 517.399 510.557 531.746 492.24 535.489C488.533 536.247 477.288 537.184 467.25 537.571L449 538.276V540.615C449 546.152 460.603 571.353 469.448 585.025L474.14 592.279L478.32 588.312C489.243 577.944 505.724 566.236 512.582 563.973C517.37 562.393 518.888 563.898 522.989 574.292C524.769 578.806 527.042 584.103 528.038 586.063C529.974 589.87 528.125 589.117 557.629 598.12C563.193 599.818 564.37 602.069 563.708 609.74C562.999 617.963 560.952 624.006 556.81 630.109C553.15 635.501 551.373 636.757 545.098 638.385C535.861 640.781 518.643 654.867 514.143 663.71C512.286 667.359 512 669.615 512 680.629C512 692.867 512.11 693.533 514.963 698.589L517.926 703.839L511.537 709.816C491.219 728.823 438.391 754.476 405.183 761.461C395.992 763.395 383.163 763.418 376 761.515C363.084 758.082 348.525 748.677 335 735.029C318.044 717.918 307.247 701.376 304.464 688.245C302.96 681.147 302.344 642.989 303.712 641.622C304.103 641.23 305.218 641.943 306.189 643.205C307.946 645.488 307.956 645.472 307.978 640.307C308.022 629.968 300.908 568.876 294.901 528C289.489 491.179 283.894 464.248 274.846 431.458C272.216 421.927 272.631 420 277.314 420C281.411 420 283.873 417.56 284.658 412.721C285.379 408.275 284.059 407.501 274.275 406.632C254.69 404.893 243.656 394.327 234.41 368.459C229.764 355.461 228.636 344.482 229.237 318.109C229.782 294.147 230.666 290.058 237.416 280.261C241.995 273.614 246.026 271.392 250.87 272.843C262.267 276.258 272.011 291.411 289.025 332.183C298.416 354.688 302.765 362.817 308.457 368.509C313.417 373.469 322.478 378 327.438 378C330.658 378 331 377.736 330.996 375.25C330.994 373.738 329.895 366.875 328.553 360C324.19 337.647 322.596 320.357 322.56 295C322.523 269.567 323.198 263.811 329.163 238.706C331.316 229.645 332.922 225.057 334.669 222.982C336.025 221.37 342.167 217.049 348.318 213.379C354.468 209.71 364.054 203.205 369.62 198.924C382.961 188.664 387.43 186.05 400.228 181.019C406.128 178.7 413.033 175.426 415.571 173.745C420.5 170.48 428.289 161.699 433.567 153.457C435.344 150.683 437.51 147.821 438.382 147.098C439.745 145.967 440.109 146.158 440.983 148.456C441.543 149.927 442 152.24 442 153.597C442 156.607 444.566 163 445.775 163C447.351 163 450.741 158.626 454.501 151.742L458.192 144.984L462.133 148.242C476.918 160.465 490.183 169 494.396 169C497.016 169 496.809 165.335 493.424 151.819C492.091 146.494 491 141.851 491 141.501C491 140.555 496.132 144.407 499 147.506ZM226.975 183.188C230.071 191.997 232.102 205.44 232.198 217.75C232.246 223.938 232.559 228.997 232.893 228.993C233.227 228.989 234.625 227.317 236 225.276C244.23 213.062 255.994 202.188 268 195.697C275.65 191.561 285.118 188.447 287.392 189.32C289.753 190.226 289.421 195.554 286.4 205.198C278.475 230.504 264.419 247.73 235.687 267.348C231.94 269.907 228.513 272 228.073 272C226.903 272 222.339 261.399 220.547 254.52C219.285 249.675 219 241.733 219 211.457C219 191.039 219.314 174.02 219.697 173.636C221.013 172.32 224.989 177.538 226.975 183.188ZM214.06 263.311C220.948 281.172 222.361 292.641 219.565 308C216.888 322.71 214.494 324.627 210.39 315.347C202.791 298.163 201.229 270.678 206.991 255.523C208.503 251.548 210.278 253.504 214.06 263.311ZM537.398 258.088C528.032 259.181 520.123 262.237 516.281 266.248C511.694 271.036 505 284.373 505 288.724C505 290.72 509.014 304.311 513.919 318.926C522.906 345.702 525.77 357.856 524.114 362.187C521.068 370.152 509.698 372.186 475.333 370.914C464.705 370.52 464.045 370.613 461.663 372.849C460.287 374.141 458.608 376.533 457.932 378.165C456.899 380.658 456.955 381.383 458.28 382.708C459.653 384.082 460.975 384.141 468.528 383.166L477.2 382.046L487.079 391.222C492.512 396.268 497.577 400.743 498.333 401.166C499.236 401.672 503.096 399.519 509.595 394.882C515.033 391.003 522.266 386.271 525.669 384.368L531.857 380.908L537.823 382.454C541.104 383.304 544.061 384 544.394 384C545.914 384 544.543 379.419 538.855 365.5C531.063 346.429 514.95 300.89 515.614 299.815C515.891 299.367 518.803 299 522.084 299C527.569 299 528.128 298.793 529.026 296.433C529.699 294.661 530.544 294.019 531.751 294.36C536.647 295.743 542.984 296.143 549.834 295.501C556.963 294.833 557.282 294.704 554.898 293.455C552.212 292.047 541.324 290.499 526.731 289.448C518.321 288.843 517.861 288.684 515.481 285.564C514.117 283.775 513 281.863 513 281.314C513 280.766 517.612 278.905 523.25 277.179C547.007 269.906 557.627 269.351 567.287 274.878C570.288 276.595 573.026 278 573.372 278C575.043 278 573.649 275.052 570.565 272.063C567.258 268.857 567.189 268.642 568.724 266.299C570.235 263.992 570.186 263.732 567.785 261.33C564.021 257.566 552.449 256.332 537.398 258.088ZM460.5 259.617C458.831 260.913 456.428 261.069 446 260.562C409.556 258.788 405.513 258.759 401.969 260.24C400.06 261.037 394.159 265.296 388.857 269.704C383.554 274.111 376.467 279.832 373.108 282.417C369.749 285.002 367 287.503 367 287.976C367 288.954 375.705 291 379.868 291C381.391 291 385.532 289.198 389.069 286.995C402.392 278.698 407.071 276.718 414.5 276.234C418.35 275.984 423.351 276.279 425.613 276.891C430.069 278.096 440.636 284.609 441.411 286.628C442.841 290.354 429.034 298.874 415.731 302.475C412.029 303.477 409 304.621 409 305.017C409 307.225 426.722 306.599 437.5 304.009C443.16 302.649 443.218 302.677 441.526 305.95C438.552 311.7 439.773 311.43 448.526 304.399C452.362 301.318 457.525 297.831 460 296.649C462.475 295.467 464.864 294.05 465.309 293.5C466.133 292.48 465.377 267.148 464.346 261.25C463.705 257.587 463.323 257.425 460.5 259.617ZM245.079 297.536C242.124 302.196 238.203 314.537 239.322 315.656C239.667 316 242.43 314.369 245.462 312.029C248.598 309.61 251.604 308.018 252.435 308.337C255.031 309.333 257.132 315.002 258.282 324.111C259.39 332.887 259.359 333.157 256.167 342.758C253.523 350.707 253.102 353.088 253.878 355.696C255.808 362.181 264.999 373 268.577 373C270.419 373 270.378 372.412 268.067 365.695C264.512 355.361 264.49 352.241 267.909 342.438C269.609 337.564 271 332.176 271 330.465C271 327.074 263.869 311.642 258.853 304.177C255.267 298.84 250.004 293 248.782 293C248.328 293 246.661 295.041 245.079 297.536ZM475 417.582C471.975 418.992 466.268 421.492 462.319 423.137C458.369 424.783 454.635 426.735 454.021 427.475C452.551 429.246 455.065 429.718 470.5 430.568C477.1 430.932 484.3 431.846 486.5 432.6C492.816 434.765 501.049 434.341 508.711 431.457L515.468 428.913L526.984 431.502C533.318 432.925 539.513 434.303 540.75 434.564C541.987 434.825 543 434.61 543 434.087C543 432.774 539.389 430.357 525.895 422.638C513.194 415.372 511.551 415.025 501.811 417.549C496.148 419.017 495.522 418.99 489.913 417.049C482.413 414.453 481.657 414.48 475 417.582ZM313.018 437.05C313.056 440.017 320.154 455.639 326.126 465.899C334.705 480.636 348.613 502.455 366.667 529.5C384.072 555.574 384.776 556.557 385.52 555.813C385.818 555.515 384.901 549.023 383.483 541.386C382.065 533.749 380.382 522.56 379.743 516.523L378.581 505.545L358.541 485.49C347.518 474.46 333.136 459.149 326.58 451.467C320.024 443.785 314.286 437.072 313.83 436.55C313.335 435.984 313.007 436.186 313.018 437.05ZM457.963 454.037C456.921 455.079 454.89 458.258 453.449 461.101L450.83 466.27L460.665 465.63C466.074 465.279 481.975 464.54 496 463.989C510.025 463.438 523.876 462.711 526.78 462.374C531.594 461.816 532.001 461.574 531.403 459.631C529.879 454.681 527.88 451.903 526.198 452.396C514.26 455.899 511.249 456.184 491 455.724C476.591 455.396 468.919 454.795 465.178 453.7C460.139 452.226 459.756 452.244 457.963 454.037ZM592.5 565.099C594.7 565.697 597.705 567.322 599.177 568.711C604.54 573.767 607.965 586.103 608.003 600.5C608.068 624.78 613.699 618.31 623.487 582.711C625.664 574.792 627.947 573.758 634.896 577.54C641.146 580.942 651.942 589.736 654.316 593.36C656.037 595.987 655.977 596.325 651.035 611.587C648.266 620.139 646 627.556 646 628.069C646 632.173 656.065 623.785 662.281 614.501C669.79 603.288 672.887 600 675.945 600C677.49 600 679.315 600.675 680 601.5C680.685 602.325 681.717 603 682.294 603C684.175 603 687.001 606.26 686.978 608.405C686.937 612.335 683.27 618.492 673.585 630.889C663.943 643.232 662.412 646.74 666.884 646.245C670.63 645.831 684.091 635.878 687.7 630.854C691.368 625.749 695.392 622.365 701.5 619.247C703.7 618.124 706.741 615.809 708.258 614.103C709.774 612.396 711.476 611 712.04 611C716.459 611 728 619.706 728 623.04C728 624.033 726.987 626.122 725.75 627.681C724.513 629.24 723.015 631.412 722.422 632.508C720.325 636.38 709.318 643.695 700.88 646.823C696.271 648.532 688.503 651.569 683.617 653.573C678.648 655.611 673.14 657.183 671.117 657.141C652.452 656.755 650.753 656.463 642 652.133C637.325 649.821 631.108 647.229 628.184 646.374C625.26 645.519 622.641 644.229 622.364 643.507C622.087 642.785 622.746 640.457 623.829 638.335C626.398 633.299 630.405 620.071 629.603 619.27C628.663 618.33 626.517 621.538 621.261 631.745C616.897 640.219 616.25 640.998 613.5 641.075C611.85 641.121 606.751 641.471 602.168 641.851C597.585 642.232 593.697 642.309 593.527 642.022C593.357 641.735 594.06 635.65 595.088 628.5C596.116 621.35 596.967 614.461 596.979 613.191C597.015 609.274 595.261 611.701 592.953 618.761C588.188 633.338 584.803 641.203 583.747 640.147C583.151 639.551 582.371 630.055 581.911 617.805C581 593.529 580.017 588.885 573.734 579.151C570.58 574.265 569.866 572.421 570.637 571.151C571.97 568.953 577.783 566.13 583.152 565.074C585.543 564.604 587.725 564.172 588 564.115C588.275 564.058 590.3 564.501 592.5 565.099ZM278.456 569.25C278.757 571.038 280.135 584.2 281.52 598.5C287.22 657.363 290.151 674.002 299.601 701.153C305.488 718.066 313.827 732.652 325.374 746.235C335.185 757.775 351.664 767.653 368.5 772.086C379.71 775.037 398.544 775.02 413 772.046C443.286 765.814 482.425 746.884 521 719.811L532.5 711.74L537.928 713.12C540.913 713.879 543.523 715.018 543.728 715.651C544.745 718.792 518.582 753.317 503.028 769.357C481.517 791.541 450.646 813.073 434.956 816.835C432.457 817.435 421.432 819.079 410.456 820.49C399.48 821.9 385.729 824.127 379.897 825.439C369.28 827.827 359.731 831.623 359.617 833.5C359.517 835.14 364.659 837.096 373.337 838.721C384.727 840.854 422.436 840.867 433.5 838.743C459.875 833.678 476.32 819.52 529.027 756.5C553.801 726.878 559.401 721.001 561.168 722.768C565.273 726.873 543.331 775.583 515.34 824.5C497.242 856.127 496.736 857.069 497.432 857.765C500.592 860.925 533.801 830.055 546.127 812.5C553.64 801.801 562.425 786.093 575.943 759.189C582.109 746.918 587.787 736.635 588.562 736.338C589.337 736.041 591.362 736.968 593.062 738.399C594.83 739.886 597.39 741 599.042 741C605.632 741 604.356 747.262 592.505 773.084C575.714 809.666 556.857 841.758 535.223 870.564C519.556 891.425 517.162 892.865 488.573 898.608C462.497 903.847 400.53 904.325 363.68 899.572C255.818 885.658 164.798 853.826 88.885 803.47C66.228 788.44 41.054 768.151 27.5 753.996L23.5 749.818L29.5 744.384C37.288 737.331 43.933 734.206 52.923 733.371L60.036 732.709L81.268 753.621C104.873 776.871 115.853 786.884 130.768 798.766C158.713 821.029 186.396 836.604 209.48 843.051C217.453 845.277 218 845.343 218 844.072C218 843.562 215.387 841.558 212.194 839.618C202.791 833.906 170.576 811.565 156.105 800.721C131.197 782.056 107.623 761.065 90.247 742.08C77.105 727.721 72.524 721.032 73.412 717.496C74.715 712.305 90.921 705.013 104.595 703.466L110.518 702.796L116.618 710.648C134.33 733.447 168.369 766.857 198.104 790.628C250.942 832.868 305.55 861.27 350.709 869.998C363.043 872.381 388.114 873.913 386.5 872.184C385.95 871.595 380.325 869.264 374 867.004C343.37 856.061 307.988 839.01 279.5 821.465C219.975 784.805 184.093 757.485 133.25 710.115L122 699.633L122.015 692.066C122.024 687.905 122.361 684.007 122.765 683.406C124.249 681.196 140.095 670.1 145.251 667.661C156.271 662.448 160.056 663.364 162.169 671.759C163.079 675.372 164.746 677.88 169.248 682.41C175.625 688.827 179.362 695.242 180.32 701.417C182.026 712.403 205.931 738.009 234.5 759.451C243.59 766.273 248.837 769.496 249.604 768.729C249.835 768.499 245.933 763.687 240.935 758.036C229.118 744.676 218.922 731.812 210.785 720C204.184 710.417 191.01 686.787 187.059 677.445C185.356 673.417 183.506 671.33 177.961 667.18C174.132 664.315 171 661.606 171 661.16C171 658.571 196.062 642.778 203.201 640.869C212.337 638.425 215.112 641.163 220.058 657.5C227.173 681.002 235.385 699.211 241.924 705.987C245.562 709.756 252.569 714.214 256.886 715.507C259.105 716.171 259.222 716.022 258.556 713.369C258.163 711.8 255.228 704.435 252.036 697.002C248.843 689.569 245.327 680.56 244.222 676.982C236.053 650.534 233.417 613.615 238.94 603C247.734 586.099 261.374 571.322 271.665 567.547C277.24 565.503 277.851 565.656 278.456 569.25ZM420.597 631C422.093 633.75 423.921 636 424.659 636C426.669 636 426.314 634.821 422.913 630.197C418.676 624.434 417.285 624.916 420.597 631ZM563.757 648.13C575.414 650.785 580.536 651.38 597.5 652.05C617.981 652.858 620.644 653.273 627.528 656.725C629.713 657.82 632.683 659 634.129 659.347C637.585 660.176 646.412 668.166 647.935 671.844C648.914 674.208 648.847 675.431 647.568 678.492C646.705 680.556 646 683.229 646 684.433C646 687.314 630.925 710.827 624.736 717.599C619.809 722.99 613.725 727.438 612.107 726.833C611.618 726.65 613.178 721.325 615.572 715C620.048 703.179 620.606 700.505 619.096 698.122C617.923 696.27 616.411 697.367 613.193 702.404C611.712 704.723 606.844 710.086 602.376 714.323L594.251 722.025L587.376 720.557C578.131 718.583 565.632 714.221 553.412 708.705C547.864 706.201 541.564 703.823 539.412 703.421C534.734 702.548 530.309 698.116 526.399 690.387C523.976 685.599 523.762 684.329 524.264 677.698C525.075 666.971 526.772 662.373 531.954 656.859C535.976 652.579 546.997 645 549.199 645C549.647 645 556.199 646.409 563.757 648.13ZM743.5 649.214C761.186 655.063 782.68 667.745 799.681 682.364C811.98 692.939 843.833 723.023 847.995 727.994L852.068 732.859L845.284 738.278C829.882 750.583 769.849 791.123 744.995 806.003C684.599 842.163 640.519 861.42 579 878.523C569.925 881.046 561.712 883.341 560.75 883.623C559.436 884.007 559.005 883.557 559.022 881.817C559.055 878.329 561.618 873.314 574.007 852.5C594.923 817.357 605.373 795.541 615.157 766.586C621.675 747.297 623.867 743.046 630.851 736.143C633.991 733.039 639.776 725.325 643.707 719C647.637 712.675 653.346 704.382 656.392 700.57C661.034 694.762 665.705 686.52 671.295 674.276C671.854 673.052 673.924 671.53 675.905 670.89C682.157 668.867 710.135 655.571 719.5 650.172C729.659 644.316 728.791 644.35 743.5 649.214Z" fill="black"/>
</svg>
