<svg width="299" height="293" viewBox="0 0 299 293" fill="none" xmlns="http://www.w3.org/2000/svg">
<path id="burgerr 1 (Traced)" fill-rule="evenodd" clip-rule="evenodd" d="M117.841 3.19623C73.4176 12.4551 36.0187 39.4858 17.3281 75.8451C5.48385 98.887 3.19958 114.097 10.0796 124.119L14.025 129.869L9.93706 133.91C6.51706 137.291 5.92598 139.17 6.32324 145.405C6.68046 151.017 5.90194 154.228 3.17396 158.401C-1.88795 166.142 -0.821106 175.84 5.84428 182.685C10.3728 187.336 10.5634 187.979 8.48416 191.655C5.31727 197.257 5.62322 207.436 9.12972 213.119C12.0531 217.86 12.0499 218.036 8.95511 221.813C6.17426 225.209 5.87151 227.556 6.41615 241.52C6.95918 255.425 7.61114 258.413 11.736 265.85C17.7141 276.636 28.0798 285.668 39.1952 289.781C47.613 292.894 51.2685 293 149.5 293C247.732 293 251.387 292.894 259.805 289.781C270.92 285.668 281.286 276.636 287.264 265.85C291.389 258.413 292.041 255.425 292.584 241.52C293.129 227.556 292.826 225.209 290.045 221.813C286.95 218.036 286.947 217.86 289.87 213.119C293.377 207.436 293.683 197.257 290.516 191.655C288.437 187.979 288.627 187.336 293.156 182.685C299.821 175.84 300.888 166.142 295.826 158.401C293.098 154.228 292.32 151.017 292.677 145.405C293.074 139.17 292.483 137.291 289.063 133.91L284.975 129.869L289.065 123.945C292.598 118.83 293.066 116.724 292.497 108.52C291.081 88.0842 275.793 60.8048 254.471 40.6672C219.364 7.51134 166.59 -6.96207 117.841 3.19623ZM187.144 13.4828C212.308 20.1574 237.215 34.9791 254.602 53.6267C267.314 67.2624 274.295 78.6226 280.046 95.0422C285.369 110.239 284.623 117.126 276.908 123.959L271.992 128.314H149.314H26.6366L21.1902 122.93C16.5912 118.383 15.7438 116.424 15.7438 110.333C15.7438 106.368 17.4546 98.4626 19.5451 92.7698C33.4189 54.9822 69.8694 24.3236 114.084 13.2484C126.845 10.0529 131.692 9.66493 152.704 10.1574C168.886 10.5375 180.131 11.6237 187.144 13.4828ZM129.866 39.8849C124.782 44.911 130.588 54.5467 137.608 52.732C141.298 51.7771 143.434 44.9569 141.164 41.3702C139.142 38.1747 132.482 37.299 129.866 39.8849ZM83.3428 52.6212C82.2855 53.6663 81.4205 56.0178 81.4205 57.8468C81.4205 59.6758 82.2855 62.0273 83.3428 63.0724C84.4 64.1176 86.7788 64.9726 88.6289 64.9726C90.4791 64.9726 92.8579 64.1176 93.9151 63.0724C94.9724 62.0273 95.8374 59.6758 95.8374 57.8468C95.8374 56.0178 94.9724 53.6663 93.9151 52.6212C92.8579 51.576 90.4791 50.7209 88.6289 50.7209C86.7788 50.7209 84.4 51.576 83.3428 52.6212ZM174.649 52.6212C173.592 53.6663 172.727 56.0178 172.727 57.8468C172.727 59.6758 173.592 62.0273 174.649 63.0724C175.707 64.1176 178.085 64.9726 179.936 64.9726C181.786 64.9726 184.164 64.1176 185.222 63.0724C186.279 62.0273 187.144 59.6758 187.144 57.8468C187.144 56.0178 186.279 53.6663 185.222 52.6212C184.164 51.576 181.786 50.7209 179.936 50.7209C178.085 50.7209 175.707 51.576 174.649 52.6212ZM122.824 83.0818C119.641 89.9876 125.176 95.9923 132.28 93.3399C136.309 91.8355 137.326 84.45 133.962 81.1246C130.648 77.8483 124.759 78.8823 122.824 83.0818ZM237.596 85.5648C233.315 90.2425 236.506 96.6431 243.118 96.6431C250.246 96.6431 253.553 89.6756 248.702 84.8791C245.277 81.4951 241.085 81.7532 237.596 85.5648ZM68.2051 90.4357C63.7775 92.9852 64.5304 101.069 69.4001 103.262C76.8472 106.616 83.1537 96.9994 77.3021 91.2132C74.4059 88.3518 72.1601 88.1586 68.2051 90.4357ZM184.02 97.3399C182.968 98.5924 182.34 101.622 182.623 104.07C183.075 107.972 183.807 108.52 188.571 108.52C195.471 108.52 198.152 104.892 195.501 99.1419C193.38 94.5402 187.187 93.5679 184.02 97.3399ZM282.455 143.338C282.455 147.777 281.986 148.135 274.818 149.148C269.796 149.859 263.252 152.713 255.712 157.482C249.405 161.471 243.418 164.735 242.409 164.735C241.399 164.735 235.247 161.366 228.737 157.249C213.19 147.416 209.245 147.419 194.037 157.268C187.697 161.374 181.569 164.733 180.421 164.73C179.272 164.727 174.037 161.902 168.787 158.45C150.687 146.554 149.018 146.513 131.831 157.517C125.69 161.45 119.728 164.682 118.579 164.701C117.431 164.719 111.303 161.374 104.963 157.268C89.7551 147.419 85.8097 147.416 70.2635 157.249C63.7535 161.366 57.6007 164.735 56.5915 164.735C55.5824 164.735 49.5946 161.471 43.288 157.482C35.7608 152.72 29.2011 149.859 24.2001 149.151C18.6737 148.369 16.4294 147.292 16.0274 145.227C14.5056 137.414 7.7649 137.767 149.854 138.201L282.455 138.606V143.338ZM39.7591 165.843C54.0317 174.869 58.8614 175.26 69.6612 168.26C73.927 165.495 79.8154 161.987 82.7485 160.464C88.6978 157.374 87.458 156.96 105.178 167.976C116.902 175.265 121.506 174.945 135.897 165.843C142.368 161.75 148.507 158.401 149.535 158.401C150.564 158.401 155.968 161.316 161.546 164.879C179.296 176.22 181.734 176.21 199.158 164.739C204.444 161.259 209.95 158.408 211.393 158.405C212.836 158.402 217.793 160.969 222.409 164.108C240.19 176.199 243.277 176.26 261.021 164.861C272.653 157.389 281.123 156.291 286.46 161.568C290.352 165.416 290.609 172.163 287.013 176.09C284.485 178.852 278.125 178.986 149.779 178.986C26.7951 178.986 14.9429 178.76 12.2662 176.366C8.40087 172.907 8.53702 165.525 12.5401 161.568C18.1034 156.068 26.3514 157.363 39.7591 165.843ZM279.035 191.77C282.441 194.418 283.256 196.383 283.256 201.947C283.256 207.512 282.441 209.477 279.035 212.125C274.848 215.382 273.852 215.407 149.5 215.407C25.1484 215.407 24.1521 215.382 19.9648 212.125C16.5592 209.477 15.7438 207.512 15.7438 201.947C15.7438 196.383 16.5592 194.418 19.9648 191.77C24.1521 188.513 25.1484 188.487 149.5 188.487C273.852 188.487 274.848 188.513 279.035 191.77ZM178.476 242.327C194.769 251.908 208.984 259.746 210.064 259.746C211.143 259.746 219.933 251.908 229.594 242.327L247.16 224.909H264.447H281.734L283.424 229.263C285.864 235.545 283.601 252.856 279.232 261.315C274.606 270.273 268.469 276.067 259.228 280.204C252.217 283.341 249.213 283.429 149.5 283.429C49.7868 283.429 46.7833 283.341 39.7719 280.204C30.5307 276.067 24.3939 270.273 19.7677 261.315C15.3994 252.856 13.136 235.545 15.5756 229.263L17.2656 224.909H83.0608H148.854L178.476 242.327ZM221.748 237.414L209.171 249.92L191.349 239.288C181.547 233.442 172.086 227.836 170.324 226.831C167.827 225.407 174.536 224.994 200.723 224.956L234.324 224.909L221.748 237.414Z" fill="black"/>
</svg>
