<svg width="163" height="184" viewBox="0 0 163 184" fill="none" xmlns="http://www.w3.org/2000/svg">
<path id="Fries 1 (Traced)" fill-rule="evenodd" clip-rule="evenodd" d="M65.542 0.746002C56.809 1.191 55.83 1.961 56.451 7.886C56.716 10.424 57.197 16.042 57.52 20.371L58.105 28.242L54.477 27.562C49.488 26.626 48 28.133 48 34.122C48 36.805 47.64 39 47.2 39C46.76 39 45.836 31.913 45.148 23.25C44.46 14.587 43.651 6.228 43.352 4.674L42.808 1.847L35.154 2.474C30.944 2.818 26.421 3.328 25.103 3.606L22.706 4.112L23.365 14.806C23.728 20.688 24.303 27.3 24.643 29.5C25.409 34.462 23.991 33.275 21.656 27C18.693 19.038 19.229 19.231 9.062 22.48C1.474 24.905 0.00599774 25.712 0.0369977 27.438C0.0579977 28.572 2.22 35.349 4.843 42.497C8.127 51.448 10.139 55.596 11.306 55.82C13.877 56.315 13.446 53.62 9.012 41.447C6.819 35.426 5.019 29.98 5.012 29.344C5.001 28.285 12.893 25 15.449 25C16.313 25 24.662 45.441 27.426 54.324C28.069 56.39 31.672 56.161 31.214 54.084C30.605 51.316 26.799 7.87 27.139 7.568C27.338 7.392 30.098 7.042 33.273 6.79C38.498 6.375 39.089 6.529 39.509 8.416C40.241 11.707 44 58.723 44 64.592C44 69.914 45.277 72.123 47.226 70.174C47.804 69.596 49.217 60.77 50.364 50.561L52.45 32L57.475 32.015C65.343 32.039 65.24 31.791 63.512 46.56C61.952 59.9 61.68 74.771 62.838 83.489C63.333 87.219 63.963 88.566 65.335 88.828C67.068 89.16 67.133 88.433 66.507 75.84C66.033 66.315 66.294 58.541 67.421 48.655C69.561 29.889 69.531 29.004 66.75 28.985C62.634 28.957 62.159 27.818 61.426 16.233L60.715 5H66.764H72.812L73.399 9.75C73.96 14.294 74.83 24.433 78.57 70C79.496 81.275 80.697 91.058 81.24 91.739C83.19 94.187 84.001 91.737 84.071 83.191C84.109 78.411 84.897 61.9 85.821 46.5L87.5 18.5H93.5H99.5L99.213 29C99.055 34.775 97.764 48.275 96.344 59C92.47 88.254 92.355 90.271 94.585 89.841C96.185 89.533 96.782 86.875 99.162 69.494C100.667 58.497 103.063 42.3 104.486 33.5C105.909 24.7 107.406 14.8 107.813 11.5L108.553 5.5L114.469 5.776C117.723 5.928 120.593 6.26 120.847 6.514C121.101 6.768 120.545 11.818 119.611 17.738C118.678 23.657 117.519 32.325 117.037 37C116.554 41.675 115.223 51.247 114.08 58.272C111.531 73.921 111.531 74 114 74C115.1 74 116.001 73.662 116.003 73.25C116.004 72.838 117.129 65.33 118.503 56.566C119.876 47.803 121 38.894 121 36.769V32.905L127.25 33.202L133.5 33.5L133.133 42C132.931 46.675 132.706 51.611 132.633 52.969C132.434 56.662 135.756 56.959 136.517 53.316C137.497 48.622 145.925 19.742 146.475 19.192C147.452 18.215 158 21.143 158 22.392C158 23.443 150.836 49.832 149.476 53.788C148.882 55.518 151.995 56.626 152.979 55.034C153.407 54.342 155.92 46.171 158.565 36.875C161.928 25.054 163.057 19.657 162.322 18.922C161.239 17.839 147.762 14.048 144.889 14.017C143.731 14.005 142.655 16.188 141.063 21.778L138.848 29.557L131.674 29.177C127.728 28.968 124.088 28.408 123.584 27.933C123.032 27.411 123.307 22.59 124.278 15.784C125.523 7.052 125.617 4.244 124.694 3.369C123.486 2.225 107.129 -0.197999 105.87 0.581001C105.494 0.812001 104.888 3.364 104.521 6.251C103.401 15.08 104.154 14.538 93.509 14.181C86.292 13.94 83.886 14.181 83.561 15.181C83.325 15.907 82.828 23.614 82.458 32.309C82.087 41.003 81.61 47.944 81.398 47.732C81.186 47.52 80.104 37.256 78.993 24.923C77.881 12.59 76.768 1.938 76.518 1.25C76.267 0.563002 75.261 0.0880007 74.281 0.196001C73.302 0.304001 69.369 0.551002 65.542 0.746002ZM9.938 63.282C7.172 65.439 7.027 67.796 8.986 78.75C10.043 84.662 13.162 102.775 15.916 119C26.877 183.567 26.256 181.006 31.445 182.979C33.793 183.872 37.632 183.378 39.5 181.943C42.139 179.916 56.612 174.961 63.975 173.564C81.259 170.285 102.361 172.458 116.5 178.972C120.35 180.746 124.661 182.549 126.08 182.98C129.265 183.946 134.424 181.945 135.912 179.165C136.499 178.067 138.312 169.368 139.94 159.834C151.686 91.049 155 70.907 155 68.294C155 62.927 152.743 62 139.682 62H128.022L124.109 69.783C114.826 88.246 99.956 98 81.092 98C60.462 98 44.726 86.602 36.569 65.75L35.102 62L23.301 62.032C15.591 62.053 10.959 62.486 9.938 63.282ZM35.48 73.525C41.761 86.584 54.115 96.972 67.515 100.462C70.763 101.308 77.103 102 81.605 102C101.23 102 117.227 91.864 126.688 73.434L130.5 66.009L140.281 66.004C147.942 66.001 150.184 66.317 150.624 67.461C151.124 68.765 148.171 87.221 136.469 155.921C134.556 167.153 132.768 176.565 132.496 176.838C131.552 177.782 132.009 169.174 133.98 148.882C135.069 137.672 136.198 125.575 136.49 122C136.782 118.425 137.947 105.871 139.079 94.102C140.765 76.59 140.901 72.557 139.828 71.893C139.107 71.448 138.144 71.456 137.687 71.913C137.231 72.369 134.88 94.512 132.463 121.121C128.052 169.675 127.089 179 126.488 179C126.31 179 123.99 177.913 121.332 176.585C114.569 173.204 105.498 170.286 97.935 169.059C89.658 167.716 73.319 167.721 65 169.068C57.532 170.277 45.032 174.326 40.193 177.102C38.374 178.146 36.05 179 35.028 179C32.796 179 33.161 183.101 26.964 88.533C25.964 73.284 25.167 70.16 22.67 71.704C21.683 72.314 21.866 76.108 25.109 122.261C26.221 138.079 26.989 152.254 26.815 153.761C26.478 156.691 11.933 73.372 11.975 68.75L12 66H21.93H31.86L35.48 73.525Z" fill="black"/>
</svg>
