<svg width="193" height="207" viewBox="0 0 193 207" fill="none" xmlns="http://www.w3.org/2000/svg">
<path id="Salad 1 (Traced)" fill-rule="evenodd" clip-rule="evenodd" d="M88.071 1.752C78.335 6.716 73.332 23.653 77.478 37.614C79.432 44.194 84.482 51.669 89.152 54.895L92.924 57.5L92.962 68.168C93.006 80.504 93.389 82 96.5 82C99.611 82 99.994 80.504 100.038 68.168L100.076 57.5L103.848 54.895C108.518 51.669 113.568 44.194 115.522 37.614C119.668 23.653 114.665 6.716 104.929 1.752C100.519 -0.497003 92.481 -0.497003 88.071 1.752ZM105.043 5.25C106.879 6.488 109.533 9.738 110.941 12.473C113.159 16.783 113.5 18.713 113.5 26.973C113.5 35.382 113.185 37.098 110.813 41.592C109.336 44.392 105.623 48.972 102.563 51.768L97 56.853L96.802 67.176L96.605 77.5L96.052 66.872L95.5 56.245L90.195 51.48C83.282 45.272 79.847 38.485 79.221 29.798C78.393 18.312 82.548 7.953 89.324 4.612C94.065 2.274 101.048 2.557 105.043 5.25ZM95 18C95 22.562 94.654 24 93.557 24C91.785 24 89 20.196 89 17.777C89 16.8 88.325 16 87.5 16C83.845 16 88.082 25.32 92.5 27C94.839 27.889 95 28.403 95 34.975C95 40.43 94.677 42 93.557 42C91.785 42 89 38.196 89 35.777C89 33.662 87.166 33.403 86.396 35.41C85.567 37.572 88.801 42.979 92.034 44.834C93.624 45.747 95.055 47.395 95.213 48.497C95.865 53.044 97.521 50.033 97.794 43.803C98.032 38.395 98.435 36.997 99.886 36.536C104.462 35.084 108.574 26.453 105.25 25.276C104.539 25.024 104 25.636 104 26.694C104 29.183 101.242 33 99.443 33C98.277 33 98 30.983 98 22.5C98 13.833 97.738 12 96.5 12C95.333 12 95 13.333 95 18ZM62.503 17.991C61.642 20.702 62.642 22 65.59 22C68.486 22 69.754 19.614 67.989 17.487C66.234 15.373 63.247 15.647 62.503 17.991ZM42.655 30.829C40.504 33.206 40.56 35.291 42.829 37.345C45.206 39.496 47.291 39.44 49.345 37.171C51.423 34.875 51.452 32.595 49.429 30.571C47.341 28.484 44.686 28.584 42.655 30.829ZM47.554 33.087C48.584 34.755 46.267 36.667 44.887 35.287C43.733 34.133 44.455 32 46 32C46.485 32 47.184 32.489 47.554 33.087ZM148.389 38.43C147.393 41.025 148.788 43.169 151.246 42.82C152.898 42.585 153.5 41.833 153.5 40C153.5 38.167 152.898 37.415 151.246 37.18C149.893 36.988 148.75 37.488 148.389 38.43ZM47.5 44C46.071 45.579 44.406 46.003 39.595 46.016C29.239 46.044 22.259 51.519 21.258 60.4C20.829 64.214 20.322 65.132 18.379 65.62C17.082 65.945 14.625 67.802 12.919 69.745C10.277 72.754 9.88 73.889 10.247 77.389C10.628 81.024 10.291 81.863 7.33899 84.635C4.34999 87.441 4.002 88.332 4.022 93.135C4.045 98.778 6.024 104.198 10.426 110.677C11.842 112.76 13 114.81 13 115.232C13 115.654 10.327 116 7.05899 116C3.79099 116 0.833995 116.459 0.487995 117.02C-0.421005 118.49 1.673 134.401 3.942 143.273C5.008 147.441 7.33599 154.348 9.11499 158.621C16.333 175.96 34.098 197.149 46.952 203.75L53.281 207H96.5H139.719L146.048 203.75C150.058 201.69 155.369 197.538 160.547 192.413C174.04 179.06 183.178 163.769 188.369 145.854C190.952 136.942 193.565 118.724 192.507 117.011C192.163 116.455 189.434 116 186.441 116C180.587 116 180.175 115.496 182.443 111.111C185.161 105.855 186.318 95.654 185.038 88.25C183.849 81.379 179.4 70 177.902 70C177.448 70 159.96 79.499 139.038 91.109C109.844 107.311 101 112.658 101 114.109C101 115.806 100.179 116 92.975 116C85.389 116 84.9 115.867 84.023 113.561C82.105 108.517 75.679 108.447 74.422 113.457L73.783 116H61.392C47.447 116 46.767 115.556 52.378 110.118C56.129 106.483 60.763 105.061 69 105.02C75.399 104.988 80.52 102.392 82.033 98.413C82.791 96.419 82.556 94.785 81.008 91.286C78.573 85.781 78.581 86 80.826 86C82.788 86 86.311 82.606 87.323 79.741C88.797 75.567 83.648 68.498 76.927 65.467C72.619 63.524 72.258 62.861 74.5 61C75.325 60.315 76 58.495 76 56.954C76 47.797 53.372 37.512 47.5 44ZM122.2 44.2C120.56 45.84 120.69 49.498 122.44 50.95C123.231 51.607 125.144 51.999 126.69 51.822C131.815 51.235 130.777 43 125.578 43C124.38 43 122.86 43.54 122.2 44.2ZM63.32 47.479C68.604 49.99 73.176 54.764 72.803 57.38C72.617 58.677 71.045 60.211 68.75 61.332C64.296 63.509 64.005 64.742 67.75 65.571C77.699 67.774 84 72.494 84 77.746C84 81.38 82.351 82.906 77.589 83.679C75.615 84 74 84.633 74 85.086C74 85.54 75.146 87.601 76.548 89.665C81.724 97.294 78.494 101.952 68 101.991C57.214 102.031 50.415 105.306 46.928 112.142C45.053 115.816 44.622 116.092 41.2 115.807L37.5 115.5V105.608C37.5 96.122 37.607 95.636 40.097 93.777C41.702 92.579 45.045 91.625 48.847 91.28C53.097 90.895 55 90.301 55 89.361C55 87.48 46.977 87.565 42.358 89.495L38.779 90.99L39.468 87.32C41.49 76.539 45.673 72.844 56.254 72.488C59.418 72.382 61.997 71.891 61.985 71.397C61.943 69.762 56.808 69.088 51.731 70.051C48.979 70.573 46.521 71 46.27 71C46.018 71 47.43 68.749 49.406 65.998C53.439 60.385 53.578 60 51.584 60C49.676 60 44.918 66.194 41.286 73.407C37.832 80.266 36.618 79.655 36.505 71.003C36.427 65.061 34.97 63.358 33.736 67.769C32.772 71.216 33.743 77.792 35.662 80.815C36.958 82.857 36.947 83.939 35.565 90.012C34.704 93.798 34 98.043 34 99.447C34 104.569 29.541 100.753 28.246 94.523C27.21 89.534 24.999 88.609 25.004 93.167C25.008 96.951 28.012 102.435 31.647 105.295C33.669 106.885 34.05 107.959 33.802 111.363L33.5 115.5L25.786 115.791L18.073 116.083L14.914 111.791C6.89 100.889 4.758 90.908 9.635 87.073C11.084 85.933 12.857 85 13.576 85C15.764 85 16.201 83.125 14.558 80.779C13.701 79.556 13 77.486 13 76.179C13 73.273 18.371 68.006 21.356 67.985C25.246 67.957 26.112 66.757 24.784 63.238C23.795 60.617 23.876 59.483 25.262 56.578C27.678 51.511 33.172 49 41.844 49C48.07 49 48.823 48.785 49.324 46.867C49.819 44.975 50.424 44.787 54.691 45.199C57.336 45.454 61.219 46.48 63.32 47.479ZM127.325 46.658C128.229 47.562 125.988 50.111 124.887 49.43C123.508 48.578 123.844 46 125.333 46C126.067 46 126.963 46.296 127.325 46.658ZM128.27 59.054C114.413 61.789 105.519 71.29 107.405 81.343C108.963 89.649 118.578 92.417 129.221 87.622C139.453 83.014 146 75.244 146 67.71C146 63.118 143.421 60.115 138.5 58.975C133.961 57.923 134.003 57.923 128.27 59.054ZM141.078 63.57C148.586 70.365 132.902 87 118.987 87C109.112 87 106.837 75.933 115.155 68.367C122.428 61.752 136.243 59.195 141.078 63.57ZM157.783 64.578C156.214 68.021 157.768 70.407 161.844 70.813C164.364 71.064 165.205 70.644 166.096 68.689C167.724 65.116 165.789 62 161.943 62C159.704 62 158.663 62.645 157.783 64.578ZM134.073 64.927C131.694 67.306 131.475 68.966 133.25 71.169C135.2 73.589 137.788 74.069 139.525 72.332C141.639 70.218 141.018 66.069 138.323 64.29C136.368 62.999 135.936 63.064 134.073 64.927ZM163.303 66.486C163.411 67.029 162.713 67.624 161.75 67.81C160.655 68.02 160 67.53 160 66.5C160 64.76 162.955 64.748 163.303 66.486ZM138 68.583C138 69.454 137.466 69.989 136.813 69.771C134.958 69.153 134.651 67 136.417 67C137.287 67 138 67.713 138 68.583ZM179.941 80.574C181.847 85.198 182.396 88.367 182.441 95C182.493 102.51 182.151 104.199 179.5 109.5L176.5 115.5L171.595 115.811L166.69 116.122L168.544 113.311C173.899 105.192 175.403 101.467 175.451 96.208C175.494 91.525 175.138 90.518 172.694 88.415C167.292 83.765 161.785 85.467 153 94.502C146.475 101.213 142.715 103.282 134.013 104.95C125.608 106.562 122.329 108.329 119.805 112.607C117.779 116.04 117.665 116.085 111.704 115.794C108.379 115.633 105.519 115.05 105.348 114.5C105.01 113.41 174.867 74.067 176.5 74.428C177.05 74.549 178.599 77.315 179.941 80.574ZM97.93 90.584C96.977 91.733 96.904 92.625 97.667 93.834C99.052 96.03 102.002 95.957 103.391 93.691C104.279 92.243 104.113 91.596 102.559 90.441C100.103 88.618 99.548 88.635 97.93 90.584ZM171 91C173.669 93.669 173.507 97.365 170.43 104C166.878 111.658 162.49 116 158.304 116C155.708 116 155 115.587 155 114.073C155 111.947 150.283 107.707 148.882 108.573C148.397 108.873 148 110.666 148 112.559C148 115.263 147.596 116 146.115 116C145.078 116 143.493 114.875 142.592 113.5C141.691 112.125 140.505 111 139.956 111C139.406 111 138.445 112.125 137.818 113.5C137.192 114.875 135.923 116 135 116C134.077 116 132.808 114.875 132.182 113.5C130.73 110.313 129.641 110.349 127.227 113.662C125.13 116.542 121.52 116.415 122.638 113.501C123.529 111.178 128.005 109.182 136.177 107.463C144.973 105.612 150.396 102.582 154.865 97.019C160.963 89.43 167.129 87.129 171 91ZM161 94.777C161 96.784 164.355 100 166.45 100C169.16 100 170.551 97.369 168.895 95.373C167.702 93.935 161 93.43 161 94.777ZM156.441 103.095C155.587 104.477 157.796 108.708 159.767 109.464C161.502 110.13 164 108.342 164 106.434C164 104.959 160.221 102 158.337 102C157.666 102 156.813 102.493 156.441 103.095ZM80.217 115.183C78.689 116.711 77.562 115.584 78.409 113.376C78.909 112.072 79.343 111.943 80.233 112.833C81.122 113.722 81.119 114.281 80.217 115.183ZM189.136 119.47C189.395 119.728 189.247 123.666 188.808 128.22C186.009 157.239 165.764 190.219 143.783 201.565L139.066 204H96.5H53.934L49.217 201.565C32.059 192.709 13.825 167.781 7.109 144C5.063 136.756 2.90299 120.43 3.86399 119.47C4.47799 118.856 188.522 118.856 189.136 119.47ZM22.319 135.611C20.954 139.169 24.004 151.412 28.545 160.604C34.622 172.901 45.99 185.343 48.686 182.647C48.981 182.352 46.337 179.226 42.811 175.7C33.485 166.374 25 148.933 25 139.091C25 134.825 23.412 132.764 22.319 135.611Z" fill="black"/>
</svg>
