<svg width="192" height="358" viewBox="0 0 192 358" fill="none" xmlns="http://www.w3.org/2000/svg">
<path fill-rule="evenodd" clip-rule="evenodd" d="M129.99 2.31347C118.154 5.30476 108.087 11.5849 100.303 20.8372L93.9421 28.3981L88.3307 25.3846C68.8561 14.923 42.5795 17.6566 24.5389 32.0195C15.676 39.0761 15.7333 40.0164 25.16 42.1231C40.6332 45.5821 64.2207 63.4328 70.1427 76.1649L72.504 81.2405L68.5098 79.9995C66.313 79.3185 60.0076 78.7791 54.4978 78.8014C46.6782 78.8348 43.182 79.6622 38.5666 82.5691C33.273 85.9041 26.5911 95.5765 26.5911 99.9043C26.5911 100.794 30.9674 102.999 36.3141 104.805C42.299 106.826 48.2152 110.181 51.6985 113.531L57.36 118.972L49.8181 121.464C22.8802 130.36 8.08828 149.496 3.03073 181.993C0.00393009 201.435 0.0425714 248.856 3.09799 265.385C7.23963 287.786 17.7554 310.952 31.0762 327.019C39.7416 337.473 56.6301 349.448 68.5584 353.597C83.4549 358.781 104.884 358.657 119.613 353.301C142.481 344.988 163.012 323.906 174.691 296.742C185.1 272.532 186.164 265.644 186.129 222.756C186.103 192.279 185.636 183.452 183.6 175.022C179.882 159.619 173.36 146.011 166.162 138.635C160.55 132.885 147.187 124.566 139.076 121.777C136.503 120.891 136.542 120.617 139.792 116.679C145.933 109.236 163.961 97.2439 174.466 93.6146C180.111 91.6639 185.264 89.578 185.918 88.9781C187.884 87.1786 181.608 75.433 175.872 70.1759C167.996 62.9587 158.425 59.9069 146.613 60.8473C141.209 61.2769 136.787 61.0032 136.787 60.2395C136.787 59.4757 140.598 54.6785 145.255 49.5806C154.684 39.2591 170.173 29.3974 183.249 25.3909L191.787 22.7752L182.856 15.464C166.612 2.17027 148.443 -2.35008 129.99 2.31347ZM163.02 16.1259L167.073 18.5221L157.372 24.7752C142.76 34.1898 130.626 47.5551 124.671 60.7884C121.907 66.9301 119.367 70.9795 119.025 69.7893C118.683 68.5976 117.387 64.0422 116.143 59.6667C114.898 55.2911 111.383 48.05 108.329 43.5742L102.778 35.4372L106.291 30.4459C110.313 24.7354 119.815 18.1355 128.609 14.9453C136.403 12.1195 157.471 12.8419 163.02 16.1259ZM79.9515 34.2932C94.8938 40.053 107.457 58.4208 109.156 76.9875C109.845 84.5214 109.422 85.9821 103.465 96.7014L97.0304 108.277L92.5796 99.8836C90.131 95.2662 87.4877 90.4149 86.7035 89.1022C85.9207 87.7896 83.8942 82.4196 82.2027 77.1689C78.2786 65.0001 63.1918 47.8543 49.6678 40.1962C40.1251 34.7928 40.138 34.4826 50.0012 31.6488C56.3797 29.8158 71.8901 31.1858 79.9515 34.2932ZM163.152 75.0782C171.903 80.0949 171.706 81.1801 161.004 86.8826C148.141 93.7355 139.988 100.014 131.058 109.943L123.901 117.9L115.238 116.81C105.388 115.57 105.45 115.954 112.886 101.96C119.599 89.3234 131.464 76.8427 139.453 74.0153C146.471 71.5316 157.857 72.0423 163.152 75.0782ZM71.8371 93.7371C78.2113 96.9559 84.4767 104.875 85.9922 111.628C86.9353 115.83 86.8867 115.858 77.875 116.425C71.8314 116.805 68.4411 116.352 67.7069 115.066C63.976 108.536 58.555 103.301 50.7053 98.6505C43.2149 94.2113 42.2117 93.1484 44.5487 92.1317C50.0585 89.7355 65.7377 90.6583 71.8371 93.7371ZM115.964 128.947C123.009 129.844 129.092 130.933 129.481 131.365C129.87 131.798 125.879 136.982 120.609 142.885L111.03 153.619L114.921 157.943L118.812 162.269L124.937 155.585L131.062 148.903L137.187 155.585L143.313 162.269L147.204 157.943L151.095 153.619L141.436 142.673C133.904 134.14 132.566 131.97 135.356 132.82C144.052 135.467 154.12 142.264 160.404 149.733L167.206 157.819L158.116 168.017L149.026 178.214L152.993 182.585L156.96 186.956L162.582 180.294L168.205 173.633L171.279 178.432C173.997 182.675 176.543 196.836 176.795 209.11C176.855 212.012 176.685 211.992 173.546 208.712C171.724 206.809 169.612 205.253 168.854 205.253C168.094 205.253 163.322 209.909 158.249 215.6L149.026 225.947L152.91 230.267L156.795 234.585L162.963 227.855L169.133 221.125L172.995 225.607C177.064 230.328 177.96 238.21 175.956 251.674C175.135 257.198 174.896 257.423 171.6 255.754C168.393 254.127 167.349 254.837 158.555 264.615L148.997 275.242L152.738 279.401L156.48 283.56L162.558 276.23C169.608 267.725 173.359 266.548 171.973 273.273C171.477 275.681 168.165 284.257 164.615 292.332C149.712 326.229 124.031 345.537 93.8533 345.537C66.9756 345.537 43.3709 330.022 27.3568 301.829C21.8198 292.08 14.4739 272.293 15.832 270.783C16.2728 270.293 19.3898 272.899 22.7586 276.575L28.8837 283.258L32.7263 278.798L36.5703 274.338L26.6512 263.394C18.5812 254.49 16.3515 252.802 14.6886 254.336C13.0113 255.884 12.4861 255.329 11.7476 251.222C11.2539 248.473 10.8489 241.771 10.8489 236.328C10.8489 228.406 11.4285 225.849 13.7512 223.51C16.5977 220.647 16.778 220.725 23.0677 227.588L29.4805 234.585L33.0483 230.62L36.6146 226.654L26.6727 215.686C18.0946 206.222 16.4216 205.004 14.471 206.803C13.2274 207.95 11.9194 208.564 11.563 208.17C10.8389 207.363 13.3533 180.556 14.5612 176.216C15.6732 172.214 16.7579 172.672 23.0076 179.789L28.5918 186.147L32.6247 181.853L36.6575 177.557L28.6204 168.526C19.3583 158.12 19.3955 157.593 30.1617 146.56C36.5846 139.976 46.5923 133.76 50.8785 133.688C52.0363 133.669 48.9608 138.166 44.0449 143.681L35.1062 153.708L38.7455 157.509L42.3834 161.31L48.4986 154.639L54.6123 147.967L60.9192 155.113L67.2275 162.258L70.5219 158.817C72.3351 156.923 73.8178 154.623 73.8178 153.706C73.8178 152.788 69.8364 147.571 64.9692 142.112C55.0616 130.996 55.0173 131.12 69.6404 129.015C82.934 127.101 101.264 127.074 115.964 128.947ZM83.1687 167.013L73.2511 178.123L76.6714 182.173L80.0932 186.222L86.257 179.495L92.4222 172.769L98.8765 179.81L105.329 186.852L109.229 182.518L113.129 178.182L103.108 167.041L93.0863 155.9L83.1687 167.013ZM44.49 190.922L34.5338 202.077L38.4192 206.399L42.3061 210.719L48.759 203.677L55.2133 196.636L61.3786 203.361L67.5424 210.089L70.9756 206.025L74.4103 201.961L64.4283 190.863L54.4463 179.767L44.49 190.922ZM120.638 191.614L110.929 202.687L114.541 206.703L118.155 210.719L124.608 203.677L131.062 196.636L137.517 203.677L143.969 210.719L147.536 206.755L151.101 202.79L140.724 191.667L130.347 180.543L120.638 191.614ZM82.4002 215.6L73.1766 225.947L77.0807 230.288L80.9848 234.63L87.0241 227.916L93.0634 221.201L99.1957 227.893L105.329 234.585L109.215 230.267L113.099 225.947L103.875 215.6C98.8021 209.909 93.9707 205.253 93.1378 205.253C92.3049 205.253 87.4734 209.909 82.4002 215.6ZM44.7619 239.941L35.1034 250.764L38.7441 254.565L42.3834 258.368L48.4986 251.696L54.6123 245.025L60.9192 252.17L67.2275 259.316L70.5219 255.875C72.3351 253.981 73.8178 251.641 73.8178 250.675C73.8178 248.985 56.6015 229.12 55.1361 229.12C54.7425 229.12 50.0742 233.99 44.7619 239.941ZM120.649 239.898L111.03 250.676L114.921 255.001L118.812 259.327L124.937 252.643L131.062 245.96L137.217 252.675L143.373 259.391L147.215 254.931L151.059 250.471L141.382 239.796C136.06 233.924 131.383 229.12 130.988 229.12C130.593 229.12 125.94 233.97 120.649 239.898ZM83.1687 264.07L73.2511 275.181L76.6714 279.23L80.0932 283.28L86.257 276.553L92.4222 269.827L98.8765 276.868L105.329 283.91L109.229 279.576L113.129 275.24L103.108 264.099L93.0863 252.958L83.1687 264.07ZM44.49 287.98L34.5338 299.135L38.4192 303.457L42.3061 307.777L48.759 300.734L55.2133 293.694L61.3786 300.419L67.5424 307.146L70.9756 303.083L74.4103 299.019L64.4283 287.921L54.4463 276.825L44.49 287.98ZM120.326 287.994L110.383 299.135L114.268 303.457L118.155 307.777L124.608 300.734L131.062 293.694L137.517 300.734L143.969 307.777L147.573 303.77L151.176 299.765L140.872 288.309C135.205 282.009 130.501 276.853 130.42 276.853C130.337 276.853 125.796 281.867 120.326 287.994ZM83.1687 318.168L73.2511 329.279L76.6714 333.328L80.0932 337.378L86.257 330.65L92.4222 323.925L98.8765 330.965L105.329 338.008L109.229 333.674L113.129 329.338L103.108 318.197L93.0863 307.056L83.1687 318.168Z" fill="black"/>
</svg>
