<svg width="608" height="357" viewBox="0 0 608 357" fill="none" xmlns="http://www.w3.org/2000/svg">
<path fill-rule="evenodd" clip-rule="evenodd" d="M216.5 1.55501C197.102 4.83301 175.074 13.807 162 23.76C152.988 30.619 142.707 41.246 137.402 49.183C128.505 62.494 124.284 75.047 123.309 91.09L122.727 100.68L115.338 102.854C87.712 110.981 62.617 130.718 50.084 154.176C43.163 167.13 41.52 174.288 41.52 191.5C41.52 208.147 42.79 213.964 49.33 227.295C51.164 231.032 52.389 234.26 52.052 234.468C51.715 234.676 41.053 234.871 28.359 234.901C15.665 234.931 4.602 235.215 3.775 235.533C1.731 236.317 0.0159983 240.345 0.666998 242.833C0.958998 243.952 8.213 250.635 16.786 257.684C25.359 264.733 36.002 273.585 40.437 277.356C44.871 281.126 49.768 284.766 51.318 285.444C52.868 286.122 53.993 286.967 53.818 287.322C53.308 288.358 84.984 313.996 86.828 314.039C87.747 314.061 97.162 314.044 107.75 314.002L127 313.925V332.89V351.855L129.623 353.918L132.245 355.981L303.983 355.994L475.72 356.008L478.36 353.931L481 351.855V332.927V314H501.947H522.895L557.697 285.312C576.839 269.533 595.717 253.981 599.649 250.752C607.23 244.525 608.533 242.264 606.77 238.394C605.205 234.959 599.769 233.82 586.126 234.067C576.956 234.233 574.565 234.001 574.808 232.965C574.978 232.242 575.805 229.142 576.648 226.076C578.855 218.04 579.525 202.155 578.015 193.633C570.69 152.276 534.282 121.281 482.769 112.549C479.765 112.04 478.411 111 475.814 107.208C470.703 99.744 457.553 87.313 448.662 81.542C425.905 66.768 405.532 60.725 378 60.581C369.475 60.536 359.296 60.859 355.38 61.298L348.26 62.096L345.528 56.798C334.282 34.983 310.886 16.257 283.174 6.89001C278.472 5.30001 274.393 4.00001 274.109 4.00001C273.826 4.00001 275.373 5.89701 277.547 8.21701L281.5 12.433L276.364 7.78301C273.177 4.89701 269.952 2.92501 267.864 2.58301C266.014 2.28001 261.83 1.57501 258.566 1.01601C250.369 -0.387995 226.164 -0.0779935 216.5 1.55501ZM260.259 14.539C275.96 17.285 291.219 22.887 301.956 29.847C307.89 33.693 322.987 45.921 323.019 46.906C323.03 47.233 324.57 49.255 326.441 51.399C329.819 55.269 335.519 64.816 334.849 65.483C334.657 65.674 331.533 66.947 327.907 68.311L321.315 70.792L318.746 65.554C311.472 50.722 291.982 35.071 272.751 28.618C260.741 24.588 253.625 23.549 238.5 23.619C226.658 23.674 221.77 24.133 215.281 25.802C194.227 31.217 177.255 41.605 165.724 56.133C156.778 67.405 152.565 79.91 152.629 95C152.666 103.754 153.128 106.829 155.41 113.49C158.979 123.91 163.767 131.653 171.416 139.378C189.342 157.482 215.874 167.162 243.444 165.659C249.525 165.327 255.67 164.779 257.1 164.44C259.56 163.857 259.755 164.103 260.722 168.993C261.601 173.437 261.517 174.255 260.122 174.83C259.23 175.199 249.725 175.485 239 175.467C221.002 175.437 218.701 175.224 209.135 172.698C195.864 169.195 186.472 165.262 175.925 158.789C165.859 152.612 151.986 139.12 146.702 130.369C128.627 100.434 134.433 65.973 161.773 40.908C176.091 27.782 195.446 18.685 218 14.481C227.56 12.7 249.919 12.73 260.259 14.539ZM262 39.13C266.125 40.183 273.607 43.043 278.627 45.485C289.87 50.954 301.804 61.676 306.724 70.728L309.949 76.661L306.05 78.852C303.905 80.057 298.945 83.52 295.026 86.548L287.901 92.053L283.701 88.662C281.39 86.797 277.638 84.059 275.363 82.577C271.842 80.285 270.821 78.774 268.51 72.437C263.917 59.845 254.314 47.441 243.286 39.852C240.928 38.231 239 36.648 239 36.334C239 35.308 254.335 37.172 262 39.13ZM222.409 42.886C237.534 49.744 247.596 59.151 254.035 72.454C265.481 96.102 257.597 123.297 234.641 139.349C228.008 143.987 217.444 149 214.303 149C212.134 149 203 146.064 203 145.367C203 145.122 204.88 143.027 207.179 140.711C221.239 126.542 227.398 112.466 227.398 94.5C227.398 77.772 221.954 64.508 209.707 51.393C205.873 47.288 202.909 43.793 203.118 43.626C204.411 42.599 211.873 40.095 213.772 40.052C215.022 40.023 218.908 41.299 222.409 42.886ZM198.862 58.793C211.01 70.941 216.509 86.306 214.117 101.418C212.368 112.463 206.311 123.599 197.73 131.543C193.895 135.095 190.298 138 189.738 138C189.178 138 185.382 134.608 181.302 130.462C164.908 113.799 160.998 93.347 170.398 73.423C174.379 64.986 186.138 52 189.797 52C191.27 52 194.458 54.389 198.862 58.793ZM391 74.032C416.351 77.311 437.556 87.041 454.585 103.206L462.269 110.5L457.884 111.176C447.458 112.783 446.475 112.499 438.193 105.489C418.478 88.804 389.905 80.783 362.842 84.338C349.95 86.032 335.557 90.411 327.021 95.237C301.386 109.729 286.598 133.971 288.394 158.558C290.393 185.932 310.047 209.34 340.041 220.069C348.668 223.155 348.834 223.277 349.964 227.354C350.596 229.634 351.373 232.13 351.69 232.899C352.464 234.779 346.567 233.833 336.223 230.418C304.785 220.038 281.421 197.575 274.421 171C272.19 162.529 272.154 147.554 274.345 139C285.284 96.299 337.655 67.131 391 74.032ZM385.381 97.095C395.327 98.315 407.49 101.679 414.045 105.023C419.567 107.84 429 114.083 429 114.92C429 115.27 426.188 116.381 422.75 117.389C419.313 118.397 413.166 120.75 409.091 122.619C405.017 124.488 401.602 125.9 401.503 125.758C401.404 125.616 399.63 122.717 397.56 119.316C394.033 113.52 384.24 103.27 377.486 98.306C373.949 95.706 373.996 95.699 385.381 97.095ZM278 102.042C278 102.423 275.901 105.832 273.336 109.618C270.771 113.403 269.016 115.6 269.436 114.5C269.857 113.4 270.662 109.575 271.225 106C272.76 96.254 272.693 96.363 275.526 99.025C276.887 100.303 278 101.661 278 102.042ZM357.046 102.441C365.096 105.712 376.124 113.16 380.538 118.308C384.303 122.699 390 130.911 390 131.947C390 132.28 387.02 134.79 383.378 137.526C379.735 140.262 373.947 145.565 370.514 149.311L364.272 156.123L363.595 149.811C361.88 133.833 356.375 122.509 344.139 109.792L338.647 104.085L341.573 102.945C343.183 102.318 345.4 101.427 346.5 100.966C349.576 99.675 350.589 99.817 357.046 102.441ZM333.276 117.327C340.221 124 346.392 133.458 348.613 140.832C352.233 152.854 350.561 167.287 344.215 178.794C341.542 183.64 328.05 198 326.17 198C324.287 198 313.228 187.052 309.709 181.704C303.911 172.894 301.702 165.728 301.631 155.5C301.555 144.489 303.455 137.701 309.021 129.088C313.639 121.943 323.558 112 326.068 112C326.983 112 330.226 114.397 333.276 117.327ZM127.217 119C128.143 121.896 128.399 124 127.825 124C125.603 124 111.058 130.369 104.719 134.116C89.843 142.913 77.236 158.197 72.506 173.171C70.521 179.454 70 183.201 70 191.194C70 206.153 73.523 216.713 82.695 229.25L86.17 234L83.335 234.119C74.759 234.481 68.507 233.708 67.353 232.146C63.562 227.008 59.552 219.278 57.335 212.835C53.853 202.714 53.029 186.941 55.451 176.772C60.735 154.588 76.824 135.426 100.526 123.089C108.533 118.922 121.149 114.06 124.059 114.021C125.058 114.008 126.193 115.798 127.217 119ZM488.423 127.149C540.575 137.447 574.65 179.857 564.056 221.282C562.987 225.463 561.4 230.26 560.53 231.942C558.998 234.905 558.735 235 552.033 235C548.23 235 544.892 234.634 544.615 234.187C544.339 233.739 545.254 230.252 546.649 226.437C550.161 216.828 550.944 202.781 548.524 192.784C542.192 166.633 519.67 146.023 488.5 137.858C480.773 135.833 477.166 135.503 463 135.521C448.986 135.538 445.144 135.894 437.5 137.878C406.184 146.01 382.917 167.73 377.382 194C375.384 203.479 376.064 216.187 379.014 224.5C382.853 235.319 383.222 234.528 374.403 234.375C366.67 234.24 366.666 234.238 364.968 230.87C359.896 220.808 358.874 199.662 362.871 187.5C367.375 173.797 375.948 160.805 386.151 152.22C387.779 150.85 388.883 149.138 388.606 148.416C388.303 147.625 388.628 147.304 389.421 147.608C390.147 147.887 393.611 146.119 397.12 143.68C421.461 126.76 455.365 120.621 488.423 127.149ZM261.886 135.182C260.849 139.133 259.993 143.745 259.985 145.432C259.976 147.12 259.632 149.031 259.219 149.68C258.297 151.129 246.551 153.27 241.963 152.825L238.61 152.5L242.784 149.749C247.846 146.415 257.372 136.885 260.778 131.75C262.146 129.688 263.38 128 263.519 128C263.658 128 262.923 131.232 261.886 135.182ZM135.714 138.75C136.778 139.713 139.403 142.75 141.546 145.5C147.648 153.327 156.816 161.813 165 167.209C173.434 172.771 173.868 173.331 175.674 180.999C179.511 197.296 174.046 214.946 161.05 228.228L154.365 235.06L141.682 234.836C134.707 234.712 129 234.252 129 233.814C129 233.376 130.604 230.915 132.565 228.346C136.773 222.834 140.013 216.586 142.597 209C144.932 202.144 145.221 183.087 143.105 175.5C140.56 166.375 134.115 155.335 126.917 147.771C123.157 143.82 120.174 140.503 120.29 140.402C121.097 139.69 129.908 137.086 131.639 137.048C132.816 137.021 134.649 137.787 135.714 138.75ZM118.119 157.777C127.376 167.802 132 179.035 132 191.5C132 203.956 127.376 215.199 118.138 225.203C113.525 230.198 101.487 239.733 104.737 235.817C105.676 234.686 104.569 233.091 99.039 227.61C87.994 216.662 83.022 205.452 83.022 191.5C83.022 175.276 89.508 162.574 103.835 150.74L107.171 147.985L109.954 149.967C111.485 151.058 115.159 154.572 118.119 157.777ZM481.565 149.897C509.195 155.6 529.915 172.912 535.589 195.034C538.319 205.677 536.477 220.305 531.306 229.059L529.747 231.698L525.362 222.937C520.246 212.719 510.509 201.7 501.116 195.5C495.894 192.053 494.825 190.808 493.391 186.5C488.721 172.477 477.899 158.433 465.077 149.757L462.5 148.013L467.5 148.02C470.25 148.023 476.579 148.868 481.565 149.897ZM444.966 153.986C463.618 161.678 477.954 177.502 482.006 194.875C484.106 203.879 482.878 217.085 479.098 226.134C476.279 232.884 475.553 233.839 472.83 234.384C468.869 235.176 445 235.191 445 234.401C445 234.072 445.65 232.384 446.444 230.651C453.383 215.513 453.081 196.126 445.662 180.504C441.912 172.608 433.514 161.222 429.498 158.591C428.124 157.69 427 156.546 427 156.047C427 155.548 429.363 154.232 432.25 153.122C435.137 152.012 437.551 151.081 437.612 151.052C437.674 151.023 440.983 152.344 444.966 153.986ZM420.595 168.25C431.972 178.627 438.148 191.808 438.21 205.844C438.258 216.907 434.038 230.023 429.23 233.75C427.218 235.31 401.784 235.49 398.933 233.964C394.7 231.699 389 216.133 389 206.839C389 193.585 394.224 181.804 405.004 170.75C409.16 166.488 413.074 163 413.7 163C414.326 163 417.429 165.363 420.595 168.25ZM208.613 185.928C212.951 186.988 219.544 188.166 223.264 188.545C226.984 188.925 230.25 189.596 230.522 190.035C232.19 192.735 226.14 214.827 223.5 215.672C222.95 215.848 221.669 213.971 220.653 211.501C217.774 204.502 211.897 196.04 205.545 189.75C202.351 186.588 199.96 184 200.231 184C200.503 184 204.275 184.867 208.613 185.928ZM259.98 190.75C259.945 195.659 257.996 207.245 256.417 211.93C254.67 217.116 247.606 230.637 245.305 233.202C244.066 234.582 242.196 234.865 235.389 234.702C230.775 234.591 227 234.391 227 234.259C227 234.126 228.574 231.955 230.498 229.435C237.513 220.245 242.134 208.168 243.56 195.296L244.248 189.092L249.874 188.735C252.968 188.539 256.512 188.293 257.75 188.189C259.588 188.035 259.996 188.504 259.98 190.75ZM198.966 201.735C205.039 208.53 211.025 220.04 211.727 226.272C212.201 230.477 212.049 230.807 208.662 232.9C205.35 234.947 204.002 235.09 189.57 234.921C178.45 234.791 174.22 234.422 174.669 233.62C175.013 233.004 176.375 231.04 177.694 229.256C182.117 223.275 187.03 211.449 188.707 202.75C190.656 192.644 190.826 192.627 198.966 201.735ZM347 203.513V209.027L343.301 207.481C341.267 206.631 339.431 205.764 339.221 205.555C338.898 205.232 346.025 198.106 346.75 198.027C346.887 198.012 347 200.481 347 203.513ZM275.54 203.25C279.92 209.885 293.039 222.258 301.924 228.134C306.366 231.072 310 233.768 310 234.125C310 234.482 304.712 234.842 298.25 234.924L286.5 235.073L280 241.546L273.5 248.02L395.5 247.997C462.6 247.985 532.05 247.98 549.834 247.987L582.168 248L569.834 258.255C563.05 263.895 548.643 275.79 537.817 284.688L518.135 300.866L494.485 301.183C472.43 301.479 470.74 301.631 469.418 303.441C468.313 304.954 468 309.535 468 324.191V343H304H140V324.191C140 309.537 139.687 304.954 138.582 303.441C137.267 301.64 135.45 301.464 113.329 301L89.494 300.5L76.643 290C69.575 284.225 55.249 272.413 44.807 263.75L25.821 248L59.661 247.984C78.272 247.975 133.758 247.98 182.962 247.995L272.424 248.022L278.712 241.79C282.17 238.362 285 235.258 285 234.892C285 234.525 279.728 234.152 273.284 234.063C266.84 233.974 261.379 233.712 261.148 233.482C260.918 233.251 261.461 231.946 262.355 230.58C265.301 226.084 270.006 213.003 271.217 205.94C271.872 202.123 272.481 199 272.571 199C272.661 199 273.997 200.912 275.54 203.25ZM504.68 215.824C509.248 220.618 516.007 231.259 515.996 233.64C515.994 234.113 510.085 234.641 502.865 234.813C490.518 235.107 489.782 235.018 490.484 233.313C493.499 225.981 495.181 219.873 495.693 214.386C496.383 206.997 496.248 206.976 504.68 215.824ZM173 301.756C170.248 302.682 168 305.285 168 307.544C168 308.773 168.787 310.75 169.75 311.937L171.5 314.096L275.444 314.027C370.17 313.965 379.549 313.814 381.194 312.324C383.357 310.367 383.542 306.123 381.58 303.441C380.192 301.543 377.892 301.497 277.33 301.375C220.774 301.307 173.825 301.478 173 301.756ZM410.635 303.073C407.653 305.418 407.27 308.512 409.557 311.777C411.069 313.937 411.634 314 429.485 314C450.303 314 451.351 313.663 450.803 307.149C450.341 301.655 448.166 301.032 429.385 301.015C414.583 301.001 413.055 301.169 410.635 303.073Z" fill="black"/>
</svg>
