<svg width="647" height="617" viewBox="0 0 647 617" fill="none" xmlns="http://www.w3.org/2000/svg">
<path id="patty melt1 1 (Traced)" fill-rule="evenodd" clip-rule="evenodd" d="M311.618 1.051C303.944 2.974 295.926 8.429 270.834 28.803C256.814 40.186 228.102 63.45 207.028 80.5C185.954 97.55 164.839 114.674 160.106 118.553C155.373 122.433 120.854 150.413 83.397 180.733C45.94 211.052 13.434 237.973 11.16 240.556C6.56 245.782 2.594 253.461 1.061 260.112C0.47 262.671 0.044999 280.96 0.038999 304C0.028999 345.725 0.506999 351.194 4.924 359.851C10.14 370.075 21.591 380.182 31.158 383.007L35.5 384.289L35.14 400.366C34.922 410.12 35.229 418.443 35.919 421.53C36.878 425.812 36.794 427.241 35.392 430.559C34.436 432.822 33.512 438.48 33.222 443.85L32.717 453.2L22.427 461.677C11.594 470.602 6.442 476.973 2.74 486.023C0.563999 491.344 0.490999 492.675 0.197999 532.843C0.000999436 559.839 0.273 575.998 0.981 579.408C2.652 587.46 7.412 596.498 13.208 602.626C19.362 609.134 24.741 612.507 33.125 615.116C38.994 616.943 47.822 617 323.5 617C599.178 617 608.006 616.943 613.875 615.116C622.259 612.507 627.638 609.134 633.792 602.626C639.588 596.498 644.348 587.46 646.019 579.408C646.727 575.996 646.997 559.853 646.798 532.843C646.5 492.544 646.435 491.358 644.223 485.881C640.37 476.338 635.052 470.164 620.667 458.532L607.104 447.563L605.91 440.885C604.803 434.69 604.865 433.999 606.763 431.333C611.264 425.012 612.228 419.282 611.852 401.101L611.5 384.119L615.831 382.907C626.13 380.024 636.778 370.485 641.96 359.5C646.657 349.541 647 345.744 647 303.661C647 261.04 646.599 257.114 641.333 248.125C636.203 239.371 638.108 241.02 561.5 179.004C551.6 170.99 520.775 146.014 493 123.502C445.698 85.164 380.788 32.576 358.823 14.796C353.5 10.488 346.113 5.544 342.408 3.81C336.474 1.033 334.467 0.623005 325.585 0.368005C320.038 0.209005 313.753 0.516004 311.618 1.051ZM336.604 27.88C339.921 30.202 391.662 71.884 428 101.508C432.125 104.87 448.55 118.187 464.5 131.099C480.45 144.012 516.225 172.997 544 195.51C571.775 218.023 599.799 240.723 606.277 245.954C615.522 253.421 618.585 256.532 620.527 260.429C626.141 271.696 621.728 285.305 610.5 291.347L606.5 293.5H323.5H40.5L36.5 291.347C25.261 285.299 20.858 271.697 26.485 260.406C28.35 256.664 31.284 253.556 38.235 247.959C43.33 243.857 55.825 233.733 66 225.463C76.175 217.192 95.3 201.688 108.5 191.009C121.7 180.33 140.6 165.026 150.5 157C160.4 148.975 180.148 132.979 194.384 121.454C221.307 99.66 247.037 78.802 287 46.379C299.925 35.893 311.533 26.766 312.797 26.096C319.591 22.497 330.033 23.279 336.604 27.88ZM311.76 104.25C308.687 106.588 289.826 121.775 269.848 138C229.786 170.536 215.709 181.953 175 214.922C159.875 227.171 146.984 238.162 146.352 239.347C143.602 244.507 144.367 249.567 148.525 253.725C151.793 256.993 152.404 257.216 156.909 256.783C161.389 256.352 163.009 255.309 177.635 243.431C186.361 236.344 202.725 223.094 214 213.985C305.077 140.407 325.973 123.36 329.25 119.964C332.165 116.943 333 115.278 333 112.489C333 105.168 327.92 100 320.724 100C318.296 100 315.78 101.193 311.76 104.25ZM384.989 144.273C382.831 145.442 369.282 156.233 337 182.493C332.875 185.848 317.711 198.147 303.301 209.824C288.892 221.501 276.179 232.228 275.051 233.662C271.073 238.719 273.217 247.509 279.18 250.593C282.773 252.451 289.167 252.017 291.828 249.735C292.747 248.945 308.575 236.11 327 221.212C401.821 160.714 399.405 162.761 400.724 158.736C403.08 151.548 398.636 144.571 390.977 143.43C388.967 143.131 386.44 143.487 384.989 144.273ZM39.301 316.979C47.846 318.366 599.154 318.366 607.699 316.979C611.108 316.426 615.946 315.095 618.449 314.022L623 312.071L622.99 327.786C622.981 342.191 622.784 343.922 620.619 348.571C617.913 354.383 612.6 359.204 607.078 360.859C604.263 361.702 530.183 362 323.312 362C9.13901 362 37.451 362.728 30.179 354.466C24.86 348.423 24 344.626 24 327.17V312.071L28.551 314.022C31.054 315.095 35.892 316.426 39.301 316.979ZM585.545 388.455C587.891 390.8 588 391.466 588 403.486C588 414.582 587.794 416.129 586.25 416.628C585.288 416.939 582.25 418.388 579.5 419.847L574.5 422.5L325.636 422.758C158.199 422.931 75.528 422.681 72.97 421.992C70.878 421.429 66.888 419.063 64.102 416.734L59.036 412.5L59.018 401.705C59.001 391.564 59.149 390.76 61.455 388.455L63.909 386H323.5H583.091L585.545 388.455ZM581.887 446.521C584.056 447.337 582.714 457.658 579.652 463.7C572.839 477.146 556.251 482.682 542.878 475.975C536.859 472.957 533.261 469.39 530.296 463.5C527.062 457.074 524.488 454.316 520.497 452.999C516.048 451.531 512.74 452.991 506.028 459.386C502.938 462.329 498.42 465.444 495.784 466.448C489.771 468.74 481.32 468.191 474.579 465.072C466.131 461.162 460.336 463.569 455.49 473C451.49 480.785 446.46 485.663 438.248 489.722C431.018 493.295 430.087 493.5 421.052 493.5C412.396 493.5 410.871 493.202 404.799 490.326C397.424 486.832 390.209 480.29 387.175 474.345C384.839 469.767 382.526 467.531 378.574 466.028C374.232 464.377 370.441 465.668 364.728 470.742C357.263 477.372 350.506 480.176 342 480.176C331.635 480.176 327.149 478.319 316.172 469.484C309.403 464.034 304.944 464.579 297.213 471.801C291.898 476.766 287.314 478.446 279 478.474C271.16 478.501 269.761 478.01 259.543 471.643C253.02 467.578 249.23 468.451 242.359 475.603C235.898 482.326 230.404 484.949 222.718 484.978C216.087 485.003 211.487 483.346 205.895 478.917C201.068 475.094 195.543 474.15 191.184 476.405C188.79 477.643 187.059 480.09 183.908 486.694C178.618 497.777 171.863 504.739 161.731 509.551C141.42 519.196 117.302 512.466 105.065 493.738C102.902 490.427 100.343 485.085 99.379 481.867C98.33 478.366 96.47 474.908 94.748 473.258C92.065 470.688 91.276 470.497 83.184 470.46C72.92 470.414 66.824 468.028 61.97 462.16C59.171 458.776 56 450.76 56 447.068C56 445.647 80.609 445.523 318.25 445.75C462.487 445.887 581.124 446.234 581.887 446.521ZM610.518 480.958C620.237 489.142 623 493.844 623 502.202C623 510.491 619.045 517.52 612.001 521.75L606.588 525H394.686H182.784L186.642 521.805C190.253 518.815 197.383 510.92 200.388 506.584C201.679 504.721 201.835 504.718 206.108 506.465C208.815 507.572 214.231 508.454 220.228 508.763C228.497 509.19 231.011 508.926 237.002 506.999C240.878 505.753 246.478 503.032 249.447 500.952L254.846 497.17L261.037 499.671C273.281 504.617 288.963 503.772 301.438 497.495L308 494.194L314.691 497.56C331.188 505.86 351.03 506.073 366.762 498.118L372.491 495.221L379.203 501.552C389.999 511.737 405.964 518 421.13 518C429.024 518 440.881 515.148 449 511.295C454.886 508.503 458.357 505.866 465.127 499.046L473.753 490.355L479.905 491.373C488.35 492.769 498.89 491.129 507.769 487.037L514.792 483.8L518.935 487.821C524.471 493.194 531.386 497.529 538.581 500.137C547.29 503.295 562.093 503.301 571.266 500.15C583.108 496.083 593.591 487.721 599.341 477.758C600.528 475.699 601.67 474.012 601.878 474.008C602.086 474.003 605.974 477.131 610.518 480.958ZM57.828 488.909C62.617 491.348 71.628 494 75.127 494C77.543 494 78.368 494.913 81.681 501.25C84.218 506.105 88.149 511.226 93.579 516.75L101.687 525H71.54H41.393L36.309 522.467C28.454 518.552 24 511.056 24 501.751C24 494.123 27.023 488.853 35.332 481.996L42.405 476.16L48.281 481.599C51.512 484.591 55.808 487.881 57.828 488.909ZM33.339 547.125C38.992 548.94 48.236 549 323.5 549C598.764 549 608.008 548.94 613.661 547.125C616.872 546.094 620.288 544.921 621.25 544.518C622.874 543.839 623 544.935 623 559.779C623 575.343 622.925 575.915 620.207 581.119C616.763 587.711 611.269 591.784 604.487 592.773C601.744 593.173 473.201 593.275 318.836 593L38.172 592.5L33.879 589.483C31.2 587.6 28.537 584.457 26.793 581.119C24.075 575.915 24 575.343 24 559.779C24 544.935 24.126 543.839 25.75 544.518C26.712 544.921 30.128 546.094 33.339 547.125Z" fill="black"/>
</svg>
