<svg width="179" height="315" viewBox="0 0 179 315" fill="none" xmlns="http://www.w3.org/2000/svg">
<path id="Soda 2 1 (Traced)" fill-rule="evenodd" clip-rule="evenodd" d="M104.196 20.0735C104.018 66.3415 102.203 67.9412 50.0038 67.9412C24.0507 67.9412 1.61812 69.2259 0.159375 70.7947C-1.79902 72.9009 14.8847 304.16 17.6644 313.456C17.9228 314.308 50.3196 315 89.6599 315H161.184L163.953 294.926C168.656 260.758 179.074 121.862 179 94.1912L178.936 67.9412H143.817H108.698L112.644 33.9706C115.28 11.2844 114.545 0 110.433 0C107.044 0 104.242 9.03 104.196 20.0735ZM96.2759 90.0653C94.3577 95.4388 92.7899 105.167 92.7899 111.683C92.7899 121.942 88.5055 123.529 60.7721 123.529H28.7543L32.7859 180.662C35.0028 212.081 38.1328 239.184 39.7408 240.882C41.3489 242.581 40.9239 218.258 38.8047 186.838L34.9453 129.706H89.746H144.547L141.928 183.75L139.309 237.794L144.719 188.382C147.694 161.206 148.934 135.499 147.481 131.25C146.028 127.007 135.714 123.529 124.555 123.529C105.206 123.529 104.276 122.535 104.276 101.912V80.2941H139.188H174.106L171.028 97.2794C169.334 106.618 164.986 155.956 161.363 206.912C157.744 257.868 153.604 301.64 152.162 304.191C148.705 310.3 31.086 310.207 27.5712 304.092C26.078 301.486 21.9946 260.493 18.4971 212.989C14.9995 165.486 10.6807 116.198 8.88889 103.456L5.63255 80.2941H52.6973C93.2551 80.2941 99.2796 81.6468 96.2759 90.0653ZM101.094 154.949C95.6901 164.356 107.429 175.331 118.151 170.909C123.309 168.778 125.629 163.238 123.665 157.735C119.748 146.747 106.728 145.141 101.094 154.949ZM115.762 160.588C115.762 163.985 113.178 166.765 110.019 166.765C106.86 166.765 104.276 163.985 104.276 160.588C104.276 157.191 106.86 154.412 110.019 154.412C113.178 154.412 115.762 157.191 115.762 160.588ZM53.6794 171.397C54.7476 177.339 59.4225 182.206 64.0744 182.206C68.7263 182.206 73.4012 177.339 74.4694 171.397C75.8248 163.812 72.7235 160.588 64.0744 160.588C55.4253 160.588 52.324 163.812 53.6794 171.397ZM69.8175 172.941C69.8175 176.338 67.2331 179.118 64.0744 179.118C60.9157 179.118 58.3313 176.338 58.3313 172.941C58.3313 169.544 60.9157 166.765 64.0744 166.765C67.2331 166.765 69.8175 169.544 69.8175 172.941ZM88.0633 194.886C90.6592 208.301 100.853 209.123 103.185 196.103C104.391 189.34 101.577 185.294 95.6614 185.294C90.1423 185.294 86.9778 189.29 88.0633 194.886ZM62.6386 214.645C51.698 217.301 48.545 243.643 58.383 250.184C68.2496 256.744 87.0468 246.818 87.0468 235.046C87.0468 220.945 75.7156 211.476 62.6386 214.645ZM79.374 237.38C74.4866 251.086 58.3313 249.424 58.3313 235.219C58.3313 222.211 69.7658 214.849 77.7602 222.711C80.5456 225.454 81.275 232.056 79.374 237.38ZM98.2056 241.543C93.2895 251.419 93.4446 256.262 98.8431 261.617C104.19 266.922 105.034 266.898 102.226 261.512C95.3226 248.263 104.77 234.076 117.876 238.016C127.61 240.938 128.357 240.364 121.505 235.206C109.152 225.904 105.494 226.899 98.2056 241.543ZM42.0208 267.132L41.102 290.294H89.9183H138.735L137.816 267.132C136.908 244.329 136.862 244.279 134.582 264.044L132.262 284.118H89.9183H47.5744L45.2542 264.044C42.9742 244.279 42.9283 244.329 42.0208 267.132ZM121.505 254.779C121.505 260.159 118.278 265.959 114.327 267.676C108.704 270.116 108.744 270.894 114.505 271.277C122.694 271.82 130.689 254.878 125.089 248.85C123.119 246.731 121.505 249.4 121.505 254.779Z" fill="black"/>
</svg>
