<svg width="326" height="315" viewBox="0 0 326 315" fill="none" xmlns="http://www.w3.org/2000/svg">
<path id="double 2 1 (Traced)" fill-rule="evenodd" clip-rule="evenodd" d="M97.5979 3.85155C63.1428 14.399 33.6405 37.1587 17.727 65.4715C0.915628 95.3803 -4.26303 131.905 6.92668 141.665C15.6073 149.235 15.3338 180.198 6.44509 196.373L0 208.101L6.43617 220.918C14.5193 237.013 14.6917 249.506 6.92668 256.28C-6.26077 267.784 2.47933 297.536 22.5073 309.304C31.7884 314.759 37.7103 315 163 315C288.29 315 294.212 314.759 303.493 309.304C323.55 297.518 331.202 271.793 319.073 256.93C311.403 247.532 311.549 236.878 319.564 220.918L326 208.101L319.555 196.373C310.473 179.843 310.39 149.232 319.406 141.393C324.957 136.567 325.53 133.587 324.35 115.719C321.157 67.44 283.682 22.061 233.563 5.78568C217.593 0.602212 208.356 -0.145655 162.352 0.0205373C128.367 0.143749 105.241 1.51053 97.5979 3.85155ZM235.834 16.5251C269.1 29.362 294.883 54.1762 307.12 85.1337C314.025 102.598 317.563 128.533 313.773 133.882C310.003 139.203 15.9343 139.123 12.2153 133.802C10.8359 131.822 10.5506 123.134 11.5881 114.495C17.0016 69.3713 50.0772 30.2302 95.7487 14.9004C113.954 8.78859 119.347 8.36452 167.459 9.25278C212.682 10.0895 221.621 11.0408 235.834 16.5251ZM88.9618 28.0439C88.1056 29.3792 91.3787 34.1415 96.2363 38.6258C103.023 44.8952 105.88 46.0013 108.576 43.4024C111.273 40.8035 110.461 38.3536 105.066 32.8176C97.9278 25.4937 91.7681 23.6656 88.9618 28.0439ZM152.595 29.4164C152.595 34.0268 164.98 45.6746 169.879 45.6746C175.637 45.6746 173.901 38.5283 166.526 31.8463C158.764 24.8204 152.595 23.743 152.595 29.4164ZM216.793 28.0439C214.183 32.1128 232.463 47.2047 235.938 43.8551C238.007 41.8608 236.985 38.4854 232.731 33.2704C226.508 25.6456 219.751 23.4307 216.793 28.0439ZM65.4051 62.9929C58.0563 68.5661 54.3343 80.0591 59.8816 80.0591C61.2105 80.0591 66.1513 76.1823 70.8603 71.4429C81.7646 60.4743 77.4807 53.8381 65.4051 62.9929ZM127.207 65.8526C120.703 72.3942 119.555 75.1479 122.251 77.7468C124.948 80.3457 127.49 79.5634 133.233 74.3628C137.342 70.6435 140.704 65.9643 140.704 63.97C140.704 56.7751 135.51 57.5 127.207 65.8526ZM255.039 65.8526C248.534 72.3942 247.387 75.1479 250.083 77.7468C252.779 80.3457 255.321 79.5634 261.065 74.3628C265.173 70.6435 268.535 65.9643 268.535 63.97C268.535 56.7751 263.342 57.5 255.039 65.8526ZM191.985 64.7981C185.751 68.9902 182.526 80.0591 187.535 80.0591C190.109 80.0591 206.106 64.2365 206.106 61.6921C206.106 58.6175 198.781 60.2307 191.985 64.7981ZM212.828 148.608C214.855 148.355 222.596 148.301 230.037 148.49C242.389 148.8 243.564 149.45 243.564 155.992V163.155H212.747H181.928L182.87 155.39C183.92 146.719 194.818 142.132 203.909 146.53C206.79 147.926 210.803 148.86 212.828 148.608ZM172.858 155.275L173.8 163.155H99.5986C40.3056 163.155 25.0936 162.384 23.8718 159.313C20.1647 150.006 26.3125 148.951 88.8161 148.172C123.078 147.745 155.791 147.395 161.514 147.395C170.655 147.395 172.031 148.353 172.858 155.275ZM302.506 153.61C305.63 161.462 301.153 163.155 277.278 163.155C254.295 163.155 253.671 162.972 253.671 156.229C253.671 147.556 254.908 147.186 280.132 148.338C295.154 149.023 301.251 150.461 302.506 153.61ZM302.098 177.482C303.606 183.041 302.116 183.221 252.649 183.502C224.597 183.66 184.428 183.545 163.386 183.244L125.126 182.694L112.721 194.428L100.318 206.162L88.6942 194.689L77.0675 183.213H51.091C26.363 183.213 19.1866 180.995 23.2772 174.617C24.4604 172.774 74.2255 171.751 162.828 171.751C298.044 171.751 300.57 171.854 302.098 177.482ZM86.2298 206.296C93.2278 212.511 99.6788 217.597 100.571 217.597C101.463 217.597 108.252 212.21 115.661 205.629L129.131 193.663L216.802 193.923C276.654 194.101 305.746 195.201 308.478 197.388C310.678 199.147 313.08 204.523 313.811 209.331C316.407 226.368 316.974 226.302 164.733 226.254C89.1729 226.228 24.0918 225.423 20.1112 224.457C14.0436 222.99 12.8723 220.961 12.8723 211.907C12.8723 205.967 14.5966 199.729 16.7013 198.044C20.5244 194.987 52.4317 192.456 66.2286 194.118C70.233 194.6 79.2317 200.078 86.2298 206.296ZM301.694 238.368C305.785 244.747 300.677 246.251 274.909 246.251H248.932L237.315 257.718L225.694 269.188L214.623 258.767C207.369 251.942 201.89 248.965 198.73 250.131C195.918 251.171 194.664 250.735 195.722 249.085C196.902 247.242 167.379 246.251 111.326 246.251C63.9098 246.251 24.4545 245.222 23.6488 243.964C18.5415 235.999 28.4499 234.864 109.635 234.119C233.281 232.984 299.176 234.443 301.694 238.368ZM210.238 268.458C216.523 275.157 223.235 280.636 225.156 280.636C227.079 280.636 234.229 275.157 241.049 268.458L253.448 256.28L276.684 256.601C289.464 256.778 302.824 257.813 306.37 258.896C319.778 262.999 318.437 283.254 303.873 296.707L294.904 304.991L166.523 305.713C67.5574 306.269 36.4587 305.604 30.7985 302.805C21.7076 298.312 9.88464 281.848 9.9441 273.764C10.0541 259.243 10.0571 259.243 96.7417 257.713C141.361 256.925 182.579 256.28 188.34 256.28C196.893 256.28 200.915 258.518 210.238 268.458Z" fill="black"/>
</svg>
