<svg width="350" height="225" viewBox="0 0 350 225" fill="none" xmlns="http://www.w3.org/2000/svg">
<path id="CowBoy Hat 1 (Traced)" fill-rule="evenodd" clip-rule="evenodd" d="M172.235 1.63547C154.032 5.24585 141.401 10.6546 123.007 22.7146C117.622 26.246 109.275 31.4381 104.462 34.2528C95.4093 39.5458 93.1673 43.2229 98.9934 43.2229C102.865 43.2229 111.896 38.5907 124.261 30.2637C141.576 18.6029 156.611 12.0361 172.765 9.08102C182.894 7.22679 210.55 8.06739 217.948 10.453C224.347 12.517 230.549 19.1833 234.757 28.5198C238.289 36.3577 247.423 65.7571 247.423 69.2871C247.423 70.4015 248.26 72.5024 249.281 73.9574C250.764 76.0664 251.469 76.2599 252.771 74.9111C254.721 72.8906 253.408 66.5486 246.509 44.667C237.973 17.592 232.305 9.43116 218.03 3.66001C208.39 -0.235107 186.543 -1.20105 172.235 1.63547ZM111.269 12.7159C103.642 14.8672 92.4243 20.1206 89.2111 23.047C82.9467 28.7487 77.2399 37.8346 74.8604 45.8905C72.6145 53.4995 72.1153 59.9996 71.4514 90.3213C70.7071 124.286 71.1272 133.142 73.4859 133.142C74.0733 133.142 74.9382 122.437 75.4076 109.354C76.3426 83.3403 79.0112 58.6399 82.0507 47.8891C83.9179 41.2787 84.3718 40.8046 93.4189 36.0144C104.921 29.9245 129.908 13.6301 130.503 11.8317C131.149 9.87939 119.411 10.4203 111.269 12.7159ZM176.753 18.765C161.751 20.8522 143.771 25.4203 137.599 28.7146C118.673 38.8128 120.499 47.9218 142.157 51.4518C154.333 53.4368 157.947 52.2325 151.06 48.4845C148.339 47.0036 146.339 45.0608 146.614 44.167C147.98 39.7188 179.23 27.0171 195.632 24.2419C217.945 20.4666 200.632 15.4434 176.753 18.765ZM253.907 78.1631C224.757 83.9602 190.244 99.121 162.334 118.39C144.165 130.932 135.4 138.659 112.566 162.264C78.9684 196.996 71.6965 203.529 59.6579 209.797C50.1906 214.725 47.5674 215.495 40.1217 215.529C35.3926 215.549 29.2722 215.067 26.5232 214.457C19.9152 212.989 20.6232 215.489 28.3801 221.017C33.6901 224.8 34.9336 225.094 45.1374 224.981C64.514 224.766 82.4085 218.244 143.687 189.068C192.741 165.713 219.806 155.342 250.665 148.075C261.561 145.51 269.118 144.888 297.995 144.183C336.395 143.244 338.643 142.736 346.018 133.335C351.189 126.744 351.331 118.484 346.401 111.008C339.703 100.855 321.074 87.1536 306.537 81.6918C298.44 78.6481 294.957 78.1945 277.247 77.877C266.193 77.6795 255.69 77.8075 253.907 78.1631ZM51.9969 93.4684C35.4017 102.725 15.5608 121.756 8.19684 135.481C2.45114 146.188 -0.694653 161.73 0.130051 175.333C0.517766 181.726 1.79632 190.226 2.96984 194.224C5.00048 201.137 12.9428 212.38 14.5792 210.661C15.0033 210.216 13.9114 206.54 12.1518 202.491C-4.17372 164.936 8.23316 130.439 47.7541 103.501C64.2534 92.2545 65.8846 90.9929 65.8846 89.4806C65.8846 86.9738 61.2593 88.3022 51.9969 93.4684ZM111.269 137.29C103.781 137.823 91.7072 138.332 84.4392 138.424C77.1711 138.516 70.899 139.146 70.5009 139.822C69.0071 142.362 71.9675 157.849 74.4442 160.452C77.7326 163.906 89.4432 166.147 98.2504 165.008C105.018 164.132 105.901 163.519 118.349 151.056C125.51 143.887 131.563 137.537 131.8 136.944C132.039 136.351 130.58 135.969 128.558 136.095C126.538 136.221 118.758 136.759 111.269 137.29Z" fill="black"/>
</svg>
